<svg width="542" height="76" viewBox="0 0 542 76" fill="none" xmlns="http://www.w3.org/2000/svg">
<path d="M97.4072 0H525V76H0L97.4072 0Z" transform="translate(17)" fill="black"/>
<path d="M37.1553 20.0068C39.0139 20.4567 40.6095 21.2182 41.8895 22.6028C42.9415 23.7104 43.5377 25.1642 43.5377 26.6699C43.5728 29.7159 43.5728 32.7619 43.5377 35.8079C43.5026 39.5808 41.1706 42.1942 37.0852 42.9903C35.9455 43.2153 34.8058 43.3191 33.6485 43.3191C22.7424 43.3364 11.8539 43.3191 0.947764 43.3537C0.211339 43.3537 -0.0166063 43.1807 0.000927652 42.4192C0.0184616 28.591 0.0184616 14.7628 0.000927652 0.934571C0.000927652 0.207683 0.193805 0 0.947764 0C11.4857 0.0173069 22.0235 3.86839e-09 32.5614 0.0173069C34.4376 0.0173069 36.2962 0.242296 38.0496 1.0038C40.7147 2.16336 42.3103 4.13634 42.433 7.00929C42.5558 9.79569 42.5382 12.5821 42.3278 15.3685C42.1174 18.103 41.0128 19.2972 37.7164 19.8683C37.5235 19.9202 37.3307 19.9721 37.1553 20.0068ZM19.8493 38.1097C23.8821 38.1097 27.9149 38.1444 31.9477 38.0924C33.0524 38.0751 34.1395 37.9021 35.1915 37.5905C36.5066 37.1925 37.2956 36.1887 37.3307 34.8214C37.4008 32.2946 37.4359 29.7505 37.3657 27.2237C37.3131 25.268 36.3488 24.2469 34.385 23.797C33.7537 23.6412 33.1225 23.5547 32.4913 23.5547C23.8997 23.5374 15.3256 23.5547 6.73396 23.5374C6.06767 23.5374 5.90985 23.7797 5.90985 24.3854C5.92739 28.6775 5.94492 32.9696 5.90985 37.2444C5.90985 38.0059 6.17288 38.1617 6.89177 38.1617C11.2051 38.0924 15.5184 38.1097 19.8493 38.1097ZM19.4285 18.3626V18.2934C23.6367 18.2934 27.8623 18.3453 32.0705 18.2761C34.7882 18.2414 36.3488 16.7704 36.3663 14.3993C36.3838 12.7032 36.4014 10.9899 36.3663 9.29379C36.3312 7.40734 35.4195 6.17856 33.5959 5.64204C32.7894 5.39975 31.9478 5.2786 31.1061 5.26129C23.0054 5.22668 14.9223 5.26129 6.82163 5.22668C6.10274 5.22668 5.90985 5.45167 5.90985 6.14394C5.94492 9.86492 5.9274 13.6032 5.9274 17.3242C5.9274 18.328 5.92739 18.3453 6.94436 18.3453L19.4285 18.3626Z" transform="translate(310.66 15.3368)" fill="#F15A29"/>
<path d="M5.90894 23.6758V24.5931C5.90894 27.2583 5.8914 29.9236 5.90894 32.5889C5.92647 35.9464 8.06561 38.0578 11.4672 38.0578C21.1635 38.0751 30.8597 38.0751 40.556 38.0578C42.099 38.0578 41.9061 37.9021 41.9061 39.4078C41.9061 40.4462 41.871 41.4846 41.9236 42.523C41.9587 43.2153 41.6957 43.371 41.0469 43.371C37.8558 43.3364 34.6646 43.3537 31.4734 43.3537C24.3722 43.3537 17.2709 43.2326 10.1872 43.3883C5.10238 43.4922 0.613692 39.6674 0.07014 34.9772C0.0175382 34.5272 0 34.0599 0 33.61C0 25.6834 0 17.7742 0 9.84761C0 4.25749 4.27828 0.0346138 9.95927 0.0173069C20.3043 3.86839e-09 30.6318 0.0173069 40.9768 0C41.6957 0 41.9762 0.155762 41.9412 0.917265C41.871 2.18067 41.9061 3.46138 41.9236 4.72478C41.9236 5.17476 41.7834 5.38244 41.3099 5.36513C41.082 5.34783 40.8541 5.36513 40.6086 5.36513C30.8597 5.36513 21.1108 5.36513 11.362 5.36513C8.53902 5.36513 6.61029 6.85352 6.01414 9.46686C5.92647 9.91684 5.8914 10.3668 5.90894 10.8341C5.8914 13.0148 5.94401 15.1954 5.89141 17.3761C5.87387 18.1203 6.11935 18.3107 6.85577 18.3107C16.1838 18.2934 25.5294 18.2761 34.8574 18.2934C35.8569 18.2934 35.8569 18.2934 35.8569 19.2799C35.8569 20.4567 35.8218 21.6163 35.8744 22.7759C35.9095 23.4681 35.6991 23.6758 34.9802 23.6758C26.1782 23.6585 17.3937 23.6412 8.59163 23.6585L5.90894 23.6758Z" transform="translate(266.353 15.3195)" fill="#F15A29"/>
<path d="M1.56512 38.0924H2.65224C12.3836 38.0924 22.0973 38.0924 31.8111 38.0924C35.1075 38.0924 37.2467 36.1368 37.4045 32.8831C37.4746 31.3601 37.4571 29.8371 37.3519 28.3141C37.1941 25.6834 34.9673 23.6239 32.2846 23.6585C24.9028 23.6412 17.521 23.6585 10.1392 23.6585C8.43843 23.6585 6.80777 23.3643 5.31739 22.5509C2.37169 20.9413 0.390353 18.5703 0.144878 15.1781C-0.0304617 12.7032 -0.100602 10.1764 0.250077 7.73617C0.881298 3.37484 4.98425 0.0519206 9.57814 0.0346137C19.5549 -0.0173069 29.5317 0.0173069 39.5085 0C40.0872 0 40.28 0.190376 40.2625 0.744196C40.2274 1.95568 40.2274 3.18447 40.2625 4.39595C40.28 5.07092 40.0696 5.26129 39.3858 5.26129C30.0578 5.24398 20.7122 5.22668 11.3841 5.24398C9.43786 5.24398 7.84227 5.98818 6.7201 7.61503C5.51026 9.38033 5.54533 14.1397 6.80777 15.8704C7.92994 17.3934 9.47292 18.103 11.3841 18.103C18.6607 18.0857 25.9373 18.103 33.2139 18.0857C35.0023 18.0857 36.6856 18.3972 38.2461 19.2972C41.4724 21.2009 43.2257 23.9873 43.2959 27.7256C43.3309 29.7332 43.3134 31.7408 43.2959 33.7484C43.2608 38.9751 39.0001 43.2845 33.7048 43.3018C23.2371 43.3537 12.7693 43.3191 2.30156 43.3191C1.75801 43.3191 1.51253 43.2153 1.53006 42.6095C1.58266 41.1731 1.56512 39.702 1.56512 38.0924Z" transform="translate(355.684 15.3368)" fill="#F15A29"/>
<path d="M5.6824 44.2191C3.85887 44.2191 2.15807 44.2364 0.439749 44.2018C0.299478 44.2018 0.0890727 43.9595 0.0364709 43.8037C-0.0336648 43.596 0.0189359 43.3537 0.0189359 43.1287C0.0189359 29.1275 0.0189359 15.1089 0.0189359 1.10764C0.0189359 2.47577e-07 0.0189349 0 1.14111 0C8.54042 0 15.9397 0 23.3566 0C26.162 0 28.5817 0.899958 30.5806 2.87294C32.1762 4.44787 32.9477 6.35162 32.9477 8.5496C32.9652 13.4648 32.9652 18.3972 32.9477 23.3124C32.9126 27.8987 29.0376 31.7581 24.1632 31.862C19.5693 31.9658 14.9578 31.8966 10.364 31.8966C9.08398 31.8966 7.78647 31.9139 6.50649 31.8966C5.85773 31.8793 5.66486 32.1043 5.66486 32.7446C5.6824 36.2406 5.6824 39.7539 5.6824 43.2499V44.2191ZM5.6824 15.8531C5.6824 19.2453 5.6824 22.6547 5.6824 26.0469C5.6824 26.5661 5.735 26.9122 6.40129 26.9122C11.8543 26.9122 17.2899 26.9468 22.7429 26.9122C25.1275 26.8949 27.179 24.8527 27.1965 22.5163C27.2491 18.1376 27.2491 13.7417 27.179 9.34571C27.1439 8.67075 26.9335 8.01309 26.5828 7.42465C25.5308 5.60743 23.7599 5.00169 21.761 4.98438C16.6937 4.96707 11.6264 4.98438 6.57662 4.96707C5.87527 4.96707 5.64733 5.19206 5.66486 5.88434C5.6824 9.20726 5.6824 12.5302 5.6824 15.8531Z" transform="translate(160.447 26.7766)" fill="#F15A29"/>
<path d="M19.3751 18.8695C15.1318 18.8695 10.8886 18.8868 6.64542 18.8522C5.87393 18.8522 5.61092 19.0599 5.62846 19.8387C5.68106 21.2925 5.64599 22.729 5.64599 24.1827C5.64599 26.0346 6.69803 27.0903 8.60923 27.1076C11.9056 27.1249 15.1844 27.1076 18.4808 27.1076C22.0577 27.1076 25.6347 27.1249 29.2116 27.0903C29.8603 27.0903 30.0532 27.2807 30.0357 27.9037C29.9831 29.0287 30.0006 30.1363 30.0357 31.2613C30.0532 31.7632 29.8428 31.9189 29.3519 31.9189C21.9525 31.9016 14.5357 31.9362 7.13637 31.8843C3.87506 31.867 0.999498 29.7383 0.245539 26.9692C0.0877341 26.3288 6.65326e-05 25.6711 0.0176005 25.0135C6.65326e-05 19.631 6.54627e-05 14.2486 6.54627e-05 8.86616C-0.0174685 4.33175 3.48932 0.541546 8.08321 0.126181C9.43332 0.00503322 10.801 0.00503375 12.1686 0.00503375C16.3768 0.0223406 20.6024 -0.0641943 24.8106 0.126181C28.668 0.29925 32.0521 3.29334 32.806 6.85856C32.9113 7.42969 32.9639 8.00081 32.9463 8.58925C32.9639 11.6872 32.9288 14.7851 32.9638 17.883C32.9814 18.6792 32.6833 18.8522 31.9469 18.8522C27.7563 18.8522 23.5657 18.8695 19.3751 18.8695ZM16.4469 13.8505C19.7608 13.8505 23.0747 13.8332 26.3886 13.8678C27.0549 13.8678 27.3179 13.7121 27.2829 13.0198C27.2303 11.9641 27.2829 10.8911 27.2653 9.81803C27.2478 7.27392 25.3541 5.16248 22.7766 5.09326C18.586 5.00672 14.3954 5.00672 10.2048 5.09326C7.62732 5.14518 5.71612 7.23931 5.64599 9.76611C5.61092 10.8564 5.66353 11.9468 5.62846 13.0371C5.61092 13.6948 5.85639 13.8505 6.48761 13.8505C9.81906 13.8505 13.133 13.8505 16.4469 13.8505Z" transform="translate(195.393 26.7716)" fill="#F15A29"/>
<path d="M33.4021 19.3864C33.4021 23.2631 33.3846 27.1572 33.4197 31.0339C33.4197 31.7262 33.2443 31.9685 32.5254 31.9339C31.2104 31.8819 29.8954 31.8819 28.5978 31.9339C27.914 31.9685 27.7387 31.7435 27.7387 31.0685C27.7562 24.1458 27.7562 17.2057 27.7562 10.283C27.7562 7.21965 26.1256 5.21205 23.0396 5.0909C18.7788 4.91783 14.5006 4.93514 10.2398 5.10821C7.36425 5.22935 5.71606 7.20234 5.69853 10.058C5.68099 15.8904 5.69853 21.7401 5.69853 27.5725C5.69853 28.7667 5.68099 29.9609 5.69853 31.1551C5.71606 31.6916 5.57579 31.9339 4.9621 31.9339C3.52432 31.8993 2.08654 31.8993 0.648757 31.9339C0.12274 31.9512 0 31.7435 0 31.2589C0.0175339 23.6266 -0.0175318 15.9769 0.03507 8.34459C0.0526039 4.3294 3.41912 0.781487 7.60973 0.175746C8.18835 0.089212 8.7845 0.0372911 9.38065 0.0199843C14.3252 0.00267738 19.2523 -0.0146295 24.1968 0.0199843C27.5633 0.0372911 30.246 1.45646 32.1748 4.17364C32.9813 5.28128 33.4021 6.6139 33.4197 7.96384C33.4021 11.7714 33.3846 15.5789 33.4021 19.3864Z" transform="translate(230.408 26.7566)" fill="#F15A29"/>
<path d="M45.1343 21.8319C45.1343 25.8125 45.1693 29.7931 45.1343 33.7736C45.0992 38.2734 41.908 42.1502 37.4369 43.0847C36.7706 43.2232 36.0868 43.2924 35.403 43.2924C34.9295 43.2924 34.4561 43.2924 33.9652 43.3097C27.9861 43.4828 21.9895 43.327 16.0104 43.379C14.2746 43.3963 12.5387 43.3617 10.8204 43.3963C9.62808 43.4136 8.43577 43.379 7.27853 43.0328C3.73668 41.9771 1.40466 39.7272 0.370161 36.1966C0.14222 35.4005 0.0370161 34.5871 0.0370161 33.7736C0.0370161 32.8218 0.0370161 31.8699 0.0194821 30.9353C0.0194821 24.6529 0.00194821 18.3705 0.00194821 12.0881C0.00194821 11.0497 -0.0155857 10.0286 0.05455 9.0075C0.177288 7.2422 0.808509 5.52882 1.87808 4.09235C3.386 1.99821 5.68294 0.596357 8.2429 0.215605C9.20726 0.0598433 10.1716 0.146378 11.136 0.0944571C14.3798 -0.0786117 17.6411 0.0425364 20.9024 0.0252295C24.1637 0.00792267 27.425 0.0252295 30.6863 0.0252295C32.317 0.0252295 33.9476 -0.00938421 35.5608 0.0252295C37.9454 0.0598433 40.2248 0.977108 41.9606 2.58665C43.5387 3.9885 44.6083 5.85765 44.9589 7.93447C45.0641 8.57483 45.1343 9.21518 45.1343 9.85554C45.1343 13.8361 45.1343 17.834 45.1343 21.8319ZM22.7785 38.1523C26.1801 38.1523 29.5817 38.1523 32.9833 38.1523C33.6846 38.1523 34.386 38.1177 35.0698 38.0138C36.455 37.8581 37.7174 37.1485 38.5415 36.0581C39.1201 35.3486 39.4708 34.4832 39.541 33.566C39.5585 33.0814 39.541 32.5795 39.541 32.0949C39.5234 30.9353 39.5234 29.7758 39.5059 28.6162C39.4884 27.7682 39.4708 26.9201 39.4708 26.0721L39.4358 23.078L39.4007 20.4127L39.3656 17.5571C39.3481 16.6571 39.3306 15.7399 39.3306 14.8399C39.313 13.5765 39.313 12.2958 39.278 11.0151C39.278 10.4959 39.2253 9.97668 39.1552 9.47478C38.9799 8.38445 38.4539 7.36335 37.6298 6.60184C36.6303 5.66727 35.4205 5.25191 34.0528 5.19999C33.86 5.19999 33.6671 5.26921 33.4742 5.26921C33.1586 5.26921 32.8255 5.25191 32.5099 5.25191C31.2123 5.25191 29.9148 5.2346 28.6173 5.2346C23.0591 5.2346 17.5008 5.2346 11.9426 5.2346C11.3464 5.2346 10.7502 5.26921 10.1541 5.35575C8.92672 5.4769 7.76948 6.04802 6.92785 6.94798C6.10376 7.83063 5.57774 8.86904 5.57774 10.0978C5.57774 11.1016 5.59527 12.1054 5.61281 13.1092L5.64787 15.8956L5.68294 18.8551L5.71801 21.5896L5.75308 24.4798L5.78815 27.1624C5.80568 28.1316 5.82321 29.1008 5.82321 30.07C5.82321 30.8661 5.80568 31.6622 5.85828 32.4583C5.87581 33.0814 5.94595 33.7044 6.08622 34.3275C6.75251 36.9754 8.89165 38.1523 11.2763 38.2388C11.3639 38.2388 11.4516 38.1523 11.5393 38.1523C12.0828 38.1523 12.6264 38.1696 13.1524 38.1696L22.7785 38.1523Z" transform="translate(112 15)" fill="#F15A29"/>
<path d="M30.943 52.418L30.914 57H5.307V15.443H30.914V20.025H10.933V33.829H27.115V38.237H10.933V52.418H30.943ZM62.0976 52.099C62.6583 52.099 63.1029 52.2633 63.4316 52.592C63.7603 52.9207 63.9246 53.346 63.9246 53.868V57H36.2006V55.231C36.2006 54.8637 36.2779 54.4867 36.4326 54.1C36.5873 53.7133 36.8289 53.3557 37.1576 53.027L50.4686 39.658C51.5706 38.5367 52.5759 37.4637 53.4846 36.439C54.3933 35.395 55.1666 34.351 55.8046 33.307C56.4426 32.263 56.9356 31.2093 57.2836 30.146C57.6316 29.0633 57.8056 27.913 57.8056 26.695C57.8056 25.477 57.6123 24.4137 57.2256 23.505C56.8389 22.577 56.3073 21.8133 55.6306 21.214C54.9733 20.6147 54.1903 20.17 53.2816 19.88C52.3729 19.5707 51.3966 19.416 50.3526 19.416C49.2893 19.416 48.3129 19.5707 47.4236 19.88C46.5343 20.1893 45.7416 20.6243 45.0456 21.185C44.3689 21.7263 43.7986 22.374 43.3346 23.128C42.8706 23.882 42.5419 24.7133 42.3486 25.622C42.1166 26.2987 41.7976 26.753 41.3916 26.985C41.0049 27.1977 40.4539 27.2557 39.7386 27.159L37.0416 26.695C37.3123 24.8003 37.8343 23.128 38.6076 21.678C39.4003 20.2087 40.3863 18.981 41.5656 17.995C42.7643 17.009 44.1273 16.2647 45.6546 15.762C47.1819 15.24 48.8349 14.979 50.6136 14.979C52.3729 14.979 54.0163 15.24 55.5436 15.762C57.0709 16.284 58.3953 17.0477 59.5166 18.053C60.6379 19.039 61.5176 20.2473 62.1556 21.678C62.7936 23.1087 63.1126 24.7327 63.1126 26.55C63.1126 28.0967 62.8806 29.537 62.4166 30.871C61.9526 32.1857 61.3243 33.4423 60.5316 34.641C59.7389 35.8397 58.8206 37.0093 57.7766 38.15C56.7519 39.2907 55.6596 40.441 54.4996 41.601L43.5376 52.795C44.3109 52.5823 45.0939 52.418 45.8866 52.302C46.6793 52.1667 47.4429 52.099 48.1776 52.099H62.0976ZM98.0621 52.418L98.0331 57H72.4261V15.443H98.0331V20.025H78.0521V33.829H94.2341V38.237H78.0521V52.418H98.0621Z" transform="translate(419)" fill="white"/>
<path d="M10 75.5L108 0H100.5L0 75.5H10Z" fill="black"/>
</svg>
