<svg width="938" height="842" viewBox="0 0 938 842" fill="none" xmlns="http://www.w3.org/2000/svg">
<rect width="1" height="97" transform="translate(540 92) scale(2)" fill="#060606"/>
<g filter="url(#filter0_b)">
<ellipse cx="48.474" cy="5.53041" rx="48.474" ry="5.53041" transform="translate(475.95 766.552) scale(2)" fill="url(#paint0_linear)" fill-opacity="0.5"/>
</g>
<ellipse cx="39.3648" cy="4.22914" rx="39.3648" ry="4.22914" transform="translate(490.265 767.853) scale(2)" fill="url(#paint1_linear)" fill-opacity="0.5"/>
<ellipse cx="25.701" cy="2.92786" rx="25.701" ry="2.92786" transform="translate(520.195 770.455) scale(2)" fill="url(#paint2_linear)" fill-opacity="0.5"/>
<g filter="url(#filter1_b)">
<ellipse cx="19.8451" cy="2.27723" rx="19.8451" ry="2.27723" transform="translate(574.851 583.072) scale(2 -2)" fill="url(#paint3_linear)" fill-opacity="0.5"/>
</g>
<ellipse cx="16.1158" cy="1.74141" rx="16.1158" ry="1.74141" transform="translate(580.711 582.536) scale(2 -2)" fill="url(#paint4_linear)" fill-opacity="0.5"/>
<ellipse cx="10.5219" cy="1.20559" rx="10.5219" ry="1.20559" transform="translate(592.964 581.465) scale(2 -2)" fill="url(#paint5_linear)" fill-opacity="0.5"/>
<g filter="url(#filter2_b)">
<ellipse cx="31.5569" cy="3.5785" rx="31.5569" ry="3.5785" transform="translate(332.806 787.372) scale(2)" fill="url(#paint6_linear)" fill-opacity="0.5"/>
</g>
<ellipse cx="25.6268" cy="2.7365" rx="25.6268" ry="2.7365" transform="translate(342.125 788.214) scale(2)" fill="url(#paint7_linear)" fill-opacity="0.5"/>
<ellipse cx="16.7315" cy="1.8945" rx="16.7315" ry="1.8945" transform="translate(361.609 789.898) scale(2)" fill="url(#paint8_linear)" fill-opacity="0.5"/>
<g filter="url(#filter3_b)">
<ellipse cx="215.693" cy="17.2419" rx="215.693" ry="17.2419" transform="translate(26.9961 640.328) scale(2)" fill="url(#paint9_linear)" fill-opacity="0.5"/>
</g>
<ellipse cx="175.16" cy="13.185" rx="175.16" ry="13.185" transform="translate(90.6907 644.385) scale(2)" fill="url(#paint10_linear)" fill-opacity="0.5"/>
<ellipse cx="114.361" cy="9.12805" rx="114.361" ry="9.12805" transform="translate(223.87 652.499) scale(2)" fill="url(#paint11_linear)" fill-opacity="0.5"/>
<g filter="url(#filter4_b)">
<ellipse cx="109.636" cy="8.78359" rx="109.636" ry="8.78359" transform="translate(418.693 666.354) scale(2)" fill="url(#paint12_linear)" fill-opacity="0.5"/>
</g>
<ellipse cx="89.0332" cy="6.71687" rx="89.0332" ry="6.71687" transform="translate(451.068 668.42) scale(2)" fill="url(#paint13_linear)" fill-opacity="0.5"/>
<ellipse cx="58.1291" cy="4.65014" rx="58.1291" ry="4.65014" transform="translate(518.763 672.554) scale(2)" fill="url(#paint14_linear)" fill-opacity="0.5"/>
<g filter="url(#filter5_b)">
<ellipse cx="38.7142" cy="2.92786" rx="38.7142" ry="2.92786" transform="translate(275.548 795.18) scale(2)" fill="url(#paint15_linear)" fill-opacity="0.5"/>
</g>
<ellipse cx="31.439" cy="2.23896" rx="31.439" ry="2.23896" transform="translate(286.98 795.869) scale(2)" fill="url(#paint16_linear)" fill-opacity="0.5"/>
<ellipse cx="20.5263" cy="1.55005" rx="20.5263" ry="1.55005" transform="translate(310.884 797.246) scale(2)" fill="url(#paint17_linear)" fill-opacity="0.5"/>
<g filter="url(#filter6_b)">
<ellipse cx="131.433" cy="5.53041" rx="131.433" ry="5.53041" transform="translate(189.661 672.86) scale(2)" fill="url(#paint18_linear)" fill-opacity="0.5"/>
</g>
<ellipse cx="106.734" cy="4.22914" rx="106.734" ry="4.22914" transform="translate(228.473 674.161) scale(2)" fill="url(#paint19_linear)" fill-opacity="0.5"/>
<ellipse cx="69.686" cy="2.92786" rx="69.686" ry="2.92786" transform="translate(309.626 676.764) scale(2)" fill="url(#paint20_linear)" fill-opacity="0.5"/>
<g filter="url(#filter7_b)">
<ellipse cx="17.2424" cy="1.62659" rx="17.2424" ry="1.62659" transform="translate(488.964 773.058) scale(2)" fill="url(#paint21_linear)" fill-opacity="0.5"/>
</g>
<ellipse cx="14.0023" cy="1.24386" rx="14.0023" ry="1.24386" transform="translate(494.055 773.441) scale(2)" fill="url(#paint22_linear)" fill-opacity="0.5"/>
<ellipse cx="9.14197" cy="0.861136" rx="9.14197" ry="0.861136" transform="translate(504.702 774.206) scale(2)" fill="url(#paint23_linear)" fill-opacity="0.5"/>
<g filter="url(#filter8_b)">
<ellipse cx="27.653" cy="2.27723" rx="27.653" ry="2.27723" transform="translate(551.427 783.468) scale(2 -2)" fill="url(#paint24_linear)" fill-opacity="0.5"/>
</g>
<ellipse cx="22.4564" cy="1.74141" rx="22.4564" ry="1.74141" transform="translate(559.593 782.932) scale(2 -2)" fill="url(#paint25_linear)" fill-opacity="0.5"/>
<ellipse cx="14.6616" cy="1.20559" rx="14.6616" ry="1.20559" transform="translate(576.667 781.861) scale(2 -2)" fill="url(#paint26_linear)" fill-opacity="0.5"/>
<rect width="8.52147" height="82.4148" transform="translate(531.907 283.779) scale(2)" fill="#A00000"/>
<rect width="178.931" height="1.30127" transform="translate(440.815 182.28) scale(2)" fill="black" fill-opacity="0.26"/>
<path d="M3.40647 11.9257C7.49424 8.96671 22.3465 6.87264 49.0532 22.1684C82.4367 41.2881 89.9309 43.3366 110.37 37.191C130.809 31.0454 161.467 -8.55972 174.411 1.68299C176.504 3.3389 178.057 4.46497 179.181 5.17955V1.68299C181.355 4.40727 183.616 8.00105 179.181 5.17955V143.032H0V11.9257H3.40647Z" transform="translate(439.761 337.244) scale(2)" fill="url(#paint27_linear)"/>
<g filter="url(#filter9_d)">
<path d="M20 29.9134H237.402C242.02 29.9134 244.33 29.9134 246.154 29.1652C248.629 28.1496 250.594 26.1844 251.61 23.7088C252.358 21.8849 252.358 19.5755 252.358 14.9567V11.7558C252.358 10.1249 252.358 9.3094 252.453 8.62535C253.068 4.19376 256.552 0.709961 260.984 0.094934C261.668 0 262.483 0 264.114 0C265.745 0 266.56 0 267.245 0.094934C271.676 0.709961 275.16 4.19376 275.775 8.62535C275.87 9.3094 275.87 10.1249 275.87 11.7558V41.4012C275.87 50.8293 275.87 55.5434 272.941 58.4723C270.012 61.4012 265.298 61.4012 255.87 61.4012H252.358H51.3488C41.9208 61.4012 37.2067 61.4012 34.2778 64.3302C31.3488 67.2591 31.3488 71.9732 31.3488 81.4012V220.095C31.3488 229.523 31.3488 234.237 34.2778 237.166C37.2067 240.095 41.9208 240.095 51.3489 240.095H255.87C265.298 240.095 270.012 240.095 272.941 243.024C275.87 245.952 275.87 250.667 275.87 260.095V292.102C275.87 293.733 275.87 294.548 275.775 295.232C275.16 299.664 271.676 303.147 267.245 303.763C266.56 303.857 265.745 303.857 264.114 303.857C262.483 303.857 261.668 303.857 260.984 303.763C256.552 303.147 253.068 299.664 252.453 295.232C252.358 294.548 252.358 293.733 252.358 292.102V286.146C252.358 278.921 252.358 275.309 250.579 272.74C249.895 271.753 249.039 270.896 248.052 270.213C245.483 268.434 241.871 268.434 234.646 268.434H20C10.5719 268.434 5.85786 268.434 2.92893 265.505C0 262.576 0 257.862 0 248.434V49.9134C0 40.4853 0 35.7713 2.92893 32.8424C5.85786 29.9134 10.5719 29.9134 20 29.9134Z" transform="translate(318.491 680.668) scale(2) rotate(-90)" fill="#FF8C00"/>
</g>
<rect width="48.1487" height="2.60255" transform="translate(702.379 529.72) scale(2)" fill="black"/>
<rect width="48.1487" height="2.60255" transform="translate(702.379 555.745) scale(2)" fill="black"/>
<rect width="48.1487" height="2.60255" transform="translate(702.379 581.771) scale(2)" fill="black"/>
<rect width="48.1487" height="2.60255" transform="translate(702.379 607.796) scale(2)" fill="black"/>
<rect width="48.1487" height="2.60255" transform="translate(702.379 243.44) scale(2)" fill="black"/>
<rect width="48.1487" height="2.60255" transform="translate(702.379 269.465) scale(2)" fill="black"/>
<rect width="48.1487" height="2.60255" transform="translate(702.379 295.491) scale(2)" fill="black"/>
<rect width="48.1487" height="2.60255" transform="translate(702.379 321.516) scale(2)" fill="black"/>
<rect width="48.1487" height="2.60255" transform="translate(702.379 386.58) scale(2)" fill="black"/>
<rect width="48.1487" height="2.60255" transform="translate(702.379 412.605) scale(2)" fill="black"/>
<rect width="48.1487" height="2.60255" transform="translate(702.379 438.631) scale(2)" fill="black"/>
<g filter="url(#filter10_b)">
<ellipse cx="25.0503" cy="2.92786" rx="25.0503" ry="2.92786" transform="translate(460.334 128.928) scale(-2 2)" fill="url(#paint28_linear)" fill-opacity="0.5"/>
</g>
<ellipse cx="20.3429" cy="2.23896" rx="20.3429" ry="2.23896" transform="translate(452.937 129.617) scale(-2 2)" fill="url(#paint29_linear)" fill-opacity="0.5"/>
<ellipse cx="13.2817" cy="1.55005" rx="13.2817" ry="1.55005" transform="translate(437.47 130.995) scale(-2 2)" fill="url(#paint30_linear)" fill-opacity="0.5"/>
<rect width="48.1487" height="2.60255" transform="translate(702.379 464.656) scale(2)" fill="black"/>
<rect width="59.2099" height="9.10891" transform="translate(680.257 347.542) scale(2)" fill="black"/>
<rect width="59.2099" height="9.10891" transform="translate(680.257 204.402) scale(2)" fill="black"/>
<rect width="59.2099" height="9.10891" transform="translate(680.257 490.682) scale(2)" fill="black"/>
<ellipse cx="4.55461" cy="4.55446" rx="4.55461" ry="4.55446" transform="translate(526.702 506.297) scale(2)" fill="#C4C4C4" fill-opacity="0.25"/>
<ellipse cx="2.60263" cy="2.60255" rx="2.60263" ry="2.60255" transform="translate(490.265 458.15) scale(2)" fill="#C4C4C4" fill-opacity="0.25"/>
<ellipse cx="2.60263" cy="2.60255" rx="2.60263" ry="2.60255" transform="translate(516.291 451.644) scale(2)" fill="#C4C4C4" fill-opacity="0.25"/>
<ellipse cx="2.60263" cy="2.60255" rx="2.60263" ry="2.60255" transform="translate(518.894 503.694) scale(2)" fill="#C4C4C4" fill-opacity="0.25"/>
<ellipse cx="2.60263" cy="2.60255" rx="2.60263" ry="2.60255" transform="translate(522.798 506.297) scale(2)" fill="#C4C4C4" fill-opacity="0.25"/>
<ellipse cx="2.60263" cy="2.60255" rx="2.60263" ry="2.60255" transform="translate(557.933 423.016) scale(2)" fill="#C4C4C4" fill-opacity="0.25"/>
<ellipse cx="2.60263" cy="2.60255" rx="2.60263" ry="2.60255" transform="translate(464.239 381.375) scale(2)" fill="#C4C4C4" fill-opacity="0.25"/>
<ellipse cx="2.60263" cy="2.60255" rx="2.60263" ry="2.60255" transform="translate(517.593 391.785) scale(2)" fill="#C4C4C4" fill-opacity="0.25"/>
<ellipse cx="4.55461" cy="4.55446" rx="4.55461" ry="4.55446" transform="translate(565.741 449.041) scale(2)" fill="#C4C4C4" fill-opacity="0.25"/>
<ellipse cx="4.55461" cy="4.55446" rx="4.55461" ry="4.55446" transform="translate(547.523 412.605) scale(2)" fill="#C4C4C4" fill-opacity="0.25"/>
<ellipse cx="4.55461" cy="4.55446" rx="4.55461" ry="4.55446" transform="translate(503.278 423.016) scale(2)" fill="#C4C4C4" fill-opacity="0.25"/>
<ellipse cx="1.95198" cy="1.95191" rx="1.95198" ry="1.95191" transform="translate(639.917 439.932) scale(2)" fill="#C4C4C4" fill-opacity="0.25"/>
<ellipse cx="1.95198" cy="1.95191" rx="1.95198" ry="1.95191" transform="translate(595.671 443.836) scale(2)" fill="#C4C4C4" fill-opacity="0.25"/>
<ellipse cx="1.95198" cy="1.95191" rx="1.95198" ry="1.95191" transform="translate(504.579 490.682) scale(2)" fill="#C4C4C4" fill-opacity="0.25"/>
<ellipse cx="1.95198" cy="1.95191" rx="1.95198" ry="1.95191" transform="translate(547.523 394.388) scale(2)" fill="#C4C4C4" fill-opacity="0.25"/>
<ellipse cx="1.95198" cy="1.95191" rx="1.95198" ry="1.95191" transform="translate(591.768 415.208) scale(2)" fill="#C4C4C4" fill-opacity="0.25"/>
<ellipse cx="1.95198" cy="1.95191" rx="1.95198" ry="1.95191" transform="translate(567.042 495.887) scale(2)" fill="#C4C4C4" fill-opacity="0.25"/>
<ellipse cx="1.95198" cy="1.95191" rx="1.95198" ry="1.95191" transform="translate(522.798 468.56) scale(2)" fill="#C4C4C4" fill-opacity="0.25"/>
<ellipse cx="1.95198" cy="1.95191" rx="1.95198" ry="1.95191" transform="translate(541.016 445.137) scale(2)" fill="#C4C4C4" fill-opacity="0.25"/>
<ellipse cx="1.95198" cy="1.95191" rx="1.95198" ry="1.95191" transform="translate(518.894 400.894) scale(2)" fill="#C4C4C4" fill-opacity="0.25"/>
<ellipse cx="3.25329" cy="3.25318" rx="3.25329" ry="3.25318" transform="translate(499.374 432.125) scale(2 -2)" fill="#C4C4C4" fill-opacity="0.25"/>
<ellipse cx="3.25329" cy="3.25318" rx="3.25329" ry="3.25318" transform="translate(589.165 480.272) scale(2 -2)" fill="#C4C4C4" fill-opacity="0.25"/>
<rect width="179.582" height="220.566" transform="translate(443.417 175.774) scale(2)" fill="#C4C4C4" fill-opacity="0.1"/>
<path d="M3.054 5.592V6H0.75V5.592H1.671V2.661C1.671 2.573 1.674 2.484 1.68 2.394L0.915 3.051C0.889 3.073 0.863 3.087 0.837 3.093C0.811 3.097 0.787 3.097 0.765 3.093C0.743 3.089 0.722 3.081 0.702 3.069C0.684 3.057 0.67 3.044 0.66 3.03L0.492 2.799L1.773 1.692H2.208V5.592H3.054ZM6.78047 3.852C6.78047 4.228 6.73947 4.554 6.65747 4.83C6.57747 5.104 6.46747 5.331 6.32747 5.511C6.18747 5.691 6.02147 5.825 5.82947 5.913C5.63947 6.001 5.43547 6.045 5.21747 6.045C4.99747 6.045 4.79247 6.001 4.60247 5.913C4.41447 5.825 4.25047 5.691 4.11047 5.511C3.97047 5.331 3.86047 5.104 3.78047 4.83C3.70047 4.554 3.66047 4.228 3.66047 3.852C3.66047 3.476 3.70047 3.15 3.78047 2.874C3.86047 2.598 3.97047 2.37 4.11047 2.19C4.25047 2.008 4.41447 1.873 4.60247 1.785C4.79247 1.697 4.99747 1.653 5.21747 1.653C5.43547 1.653 5.63947 1.697 5.82947 1.785C6.02147 1.873 6.18747 2.008 6.32747 2.19C6.46747 2.37 6.57747 2.598 6.65747 2.874C6.73947 3.15 6.78047 3.476 6.78047 3.852ZM6.22547 3.852C6.22547 3.524 6.19747 3.249 6.14147 3.027C6.08747 2.803 6.01347 2.623 5.91947 2.487C5.82747 2.351 5.72047 2.254 5.59847 2.196C5.47647 2.136 5.34947 2.106 5.21747 2.106C5.08547 2.106 4.95847 2.136 4.83647 2.196C4.71447 2.254 4.60747 2.351 4.51547 2.487C4.42347 2.623 4.34947 2.803 4.29347 3.027C4.23947 3.249 4.21247 3.524 4.21247 3.852C4.21247 4.18 4.23947 4.455 4.29347 4.677C4.34947 4.899 4.42347 5.078 4.51547 5.214C4.60747 5.35 4.71447 5.448 4.83647 5.508C4.95847 5.566 5.08547 5.595 5.21747 5.595C5.34947 5.595 5.47647 5.566 5.59847 5.508C5.72047 5.448 5.82747 5.35 5.91947 5.214C6.01347 5.078 6.08747 4.899 6.14147 4.677C6.19747 4.455 6.22547 4.18 6.22547 3.852ZM10.2609 3.852C10.2609 4.228 10.2199 4.554 10.1379 4.83C10.0579 5.104 9.94794 5.331 9.80794 5.511C9.66794 5.691 9.50194 5.825 9.30994 5.913C9.11994 6.001 8.91594 6.045 8.69794 6.045C8.47794 6.045 8.27294 6.001 8.08294 5.913C7.89494 5.825 7.73094 5.691 7.59094 5.511C7.45094 5.331 7.34094 5.104 7.26094 4.83C7.18094 4.554 7.14094 4.228 7.14094 3.852C7.14094 3.476 7.18094 3.15 7.26094 2.874C7.34094 2.598 7.45094 2.37 7.59094 2.19C7.73094 2.008 7.89494 1.873 8.08294 1.785C8.27294 1.697 8.47794 1.653 8.69794 1.653C8.91594 1.653 9.11994 1.697 9.30994 1.785C9.50194 1.873 9.66794 2.008 9.80794 2.19C9.94794 2.37 10.0579 2.598 10.1379 2.874C10.2199 3.15 10.2609 3.476 10.2609 3.852ZM9.70594 3.852C9.70594 3.524 9.67794 3.249 9.62194 3.027C9.56794 2.803 9.49394 2.623 9.39994 2.487C9.30794 2.351 9.20094 2.254 9.07894 2.196C8.95694 2.136 8.82994 2.106 8.69794 2.106C8.56594 2.106 8.43894 2.136 8.31694 2.196C8.19494 2.254 8.08794 2.351 7.99594 2.487C7.90394 2.623 7.82994 2.803 7.77394 3.027C7.71994 3.249 7.69294 3.524 7.69294 3.852C7.69294 4.18 7.71994 4.455 7.77394 4.677C7.82994 4.899 7.90394 5.078 7.99594 5.214C8.08794 5.35 8.19494 5.448 8.31694 5.508C8.43894 5.566 8.56594 5.595 8.69794 5.595C8.82994 5.595 8.95694 5.566 9.07894 5.508C9.20094 5.448 9.30794 5.35 9.39994 5.214C9.49394 5.078 9.56794 4.899 9.62194 4.677C9.67794 4.455 9.70594 4.18 9.70594 3.852Z" transform="translate(728 206) scale(2)" fill="white"/>
<path d="M1.086 3.324C1.31 3.276 1.516 3.252 1.704 3.252C1.928 3.252 2.126 3.285 2.298 3.351C2.47 3.417 2.613 3.508 2.727 3.624C2.843 3.74 2.93 3.877 2.988 4.035C3.048 4.193 3.078 4.365 3.078 4.551C3.078 4.779 3.038 4.985 2.958 5.169C2.88 5.353 2.771 5.511 2.631 5.643C2.493 5.773 2.33 5.873 2.142 5.943C1.954 6.013 1.751 6.048 1.533 6.048C1.407 6.048 1.286 6.035 1.17 6.009C1.054 5.985 0.945 5.952 0.843 5.91C0.743 5.868 0.65 5.82 0.564 5.766C0.478 5.712 0.402 5.655 0.336 5.595L0.501 5.367C0.537 5.315 0.584 5.289 0.642 5.289C0.682 5.289 0.727 5.305 0.777 5.337C0.827 5.367 0.888 5.401 0.96 5.439C1.032 5.477 1.116 5.512 1.212 5.544C1.31 5.574 1.426 5.589 1.56 5.589C1.71 5.589 1.845 5.565 1.965 5.517C2.085 5.469 2.188 5.401 2.274 5.313C2.36 5.223 2.426 5.116 2.472 4.992C2.518 4.868 2.541 4.729 2.541 4.575C2.541 4.441 2.521 4.32 2.481 4.212C2.443 4.104 2.384 4.012 2.304 3.936C2.226 3.86 2.128 3.801 2.01 3.759C1.892 3.717 1.754 3.696 1.596 3.696C1.488 3.696 1.375 3.705 1.257 3.723C1.141 3.741 1.022 3.77 0.9 3.81L0.564 3.711L0.909 1.701H2.946V1.935C2.946 2.011 2.922 2.074 2.874 2.124C2.828 2.172 2.748 2.196 2.634 2.196H1.284L1.086 3.324ZM6.78047 3.852C6.78047 4.228 6.73947 4.554 6.65747 4.83C6.57747 5.104 6.46747 5.331 6.32747 5.511C6.18747 5.691 6.02147 5.825 5.82947 5.913C5.63947 6.001 5.43547 6.045 5.21747 6.045C4.99747 6.045 4.79247 6.001 4.60247 5.913C4.41447 5.825 4.25047 5.691 4.11047 5.511C3.97047 5.331 3.86047 5.104 3.78047 4.83C3.70047 4.554 3.66047 4.228 3.66047 3.852C3.66047 3.476 3.70047 3.15 3.78047 2.874C3.86047 2.598 3.97047 2.37 4.11047 2.19C4.25047 2.008 4.41447 1.873 4.60247 1.785C4.79247 1.697 4.99747 1.653 5.21747 1.653C5.43547 1.653 5.63947 1.697 5.82947 1.785C6.02147 1.873 6.18747 2.008 6.32747 2.19C6.46747 2.37 6.57747 2.598 6.65747 2.874C6.73947 3.15 6.78047 3.476 6.78047 3.852ZM6.22547 3.852C6.22547 3.524 6.19747 3.249 6.14147 3.027C6.08747 2.803 6.01347 2.623 5.91947 2.487C5.82747 2.351 5.72047 2.254 5.59847 2.196C5.47647 2.136 5.34947 2.106 5.21747 2.106C5.08547 2.106 4.95847 2.136 4.83647 2.196C4.71447 2.254 4.60747 2.351 4.51547 2.487C4.42347 2.623 4.34947 2.803 4.29347 3.027C4.23947 3.249 4.21247 3.524 4.21247 3.852C4.21247 4.18 4.23947 4.455 4.29347 4.677C4.34947 4.899 4.42347 5.078 4.51547 5.214C4.60747 5.35 4.71447 5.448 4.83647 5.508C4.95847 5.566 5.08547 5.595 5.21747 5.595C5.34947 5.595 5.47647 5.566 5.59847 5.508C5.72047 5.448 5.82747 5.35 5.91947 5.214C6.01347 5.078 6.08747 4.899 6.14147 4.677C6.19747 4.455 6.22547 4.18 6.22547 3.852Z" transform="translate(732 348.843) scale(2)" fill="white"/>
<path d="M2.961 5.493C3.019 5.493 3.065 5.51 3.099 5.544C3.133 5.578 3.15 5.622 3.15 5.676V6H0.282V5.817C0.282 5.779 0.29 5.74 0.306 5.7C0.322 5.66 0.347 5.623 0.381 5.589L1.758 4.206C1.872 4.09 1.976 3.979 2.07 3.873C2.164 3.765 2.244 3.657 2.31 3.549C2.376 3.441 2.427 3.332 2.463 3.222C2.499 3.11 2.517 2.991 2.517 2.865C2.517 2.739 2.497 2.629 2.457 2.535C2.417 2.439 2.362 2.36 2.292 2.298C2.224 2.236 2.143 2.19 2.049 2.16C1.955 2.128 1.854 2.112 1.746 2.112C1.636 2.112 1.535 2.128 1.443 2.16C1.351 2.192 1.269 2.237 1.197 2.295C1.127 2.351 1.068 2.418 1.02 2.496C0.972 2.574 0.938 2.66 0.918 2.754C0.894 2.824 0.861 2.871 0.819 2.895C0.779 2.917 0.722 2.923 0.648 2.913L0.369 2.865C0.397 2.669 0.451 2.496 0.531 2.346C0.613 2.194 0.715 2.067 0.837 1.965C0.961 1.863 1.102 1.786 1.26 1.734C1.418 1.68 1.589 1.653 1.773 1.653C1.955 1.653 2.125 1.68 2.283 1.734C2.441 1.788 2.578 1.867 2.694 1.971C2.81 2.073 2.901 2.198 2.967 2.346C3.033 2.494 3.066 2.662 3.066 2.85C3.066 3.01 3.042 3.159 2.994 3.297C2.946 3.433 2.881 3.563 2.799 3.687C2.717 3.811 2.622 3.932 2.514 4.05C2.408 4.168 2.295 4.287 2.175 4.407L1.041 5.565C1.121 5.543 1.202 5.526 1.284 5.514C1.366 5.5 1.445 5.493 1.521 5.493H2.961ZM4.56647 3.324C4.79047 3.276 4.99647 3.252 5.18447 3.252C5.40847 3.252 5.60647 3.285 5.77847 3.351C5.95047 3.417 6.09347 3.508 6.20747 3.624C6.32347 3.74 6.41047 3.877 6.46847 4.035C6.52847 4.193 6.55847 4.365 6.55847 4.551C6.55847 4.779 6.51847 4.985 6.43847 5.169C6.36047 5.353 6.25147 5.511 6.11147 5.643C5.97347 5.773 5.81047 5.873 5.62247 5.943C5.43447 6.013 5.23147 6.048 5.01347 6.048C4.88747 6.048 4.76647 6.035 4.65047 6.009C4.53447 5.985 4.42547 5.952 4.32347 5.91C4.22347 5.868 4.13047 5.82 4.04447 5.766C3.95847 5.712 3.88247 5.655 3.81647 5.595L3.98147 5.367C4.01747 5.315 4.06447 5.289 4.12247 5.289C4.16247 5.289 4.20747 5.305 4.25747 5.337C4.30747 5.367 4.36847 5.401 4.44047 5.439C4.51247 5.477 4.59647 5.512 4.69247 5.544C4.79047 5.574 4.90647 5.589 5.04047 5.589C5.19047 5.589 5.32547 5.565 5.44547 5.517C5.56547 5.469 5.66847 5.401 5.75447 5.313C5.84047 5.223 5.90647 5.116 5.95247 4.992C5.99847 4.868 6.02147 4.729 6.02147 4.575C6.02147 4.441 6.00147 4.32 5.96147 4.212C5.92347 4.104 5.86447 4.012 5.78447 3.936C5.70647 3.86 5.60847 3.801 5.49047 3.759C5.37247 3.717 5.23447 3.696 5.07647 3.696C4.96847 3.696 4.85547 3.705 4.73747 3.723C4.62147 3.741 4.50247 3.77 4.38047 3.81L4.04447 3.711L4.38947 1.701H6.42647V1.935C6.42647 2.011 6.40247 2.074 6.35447 2.124C6.30847 2.172 6.22847 2.196 6.11447 2.196H4.76447L4.56647 3.324Z" transform="translate(732 491.983) scale(2)" fill="white"/>
<rect width="6.30682" height="254.399" rx="3" transform="translate(697.571 274.287) scale(2) rotate(7.02245)" fill="#383838"/>
<rect width="6.30682" height="253.533" rx="3" transform="translate(599.105 272.068) scale(2) rotate(7.02245)" fill="#383838"/>
<rect width="48.9991" height="4.55446" rx="2.27723" transform="translate(597.327 326.184) scale(2) rotate(7.02245)" fill="#383838"/>
<rect width="48.9991" height="4.55446" rx="2.27723" transform="translate(589.85 386.885) scale(2) rotate(7.02245)" fill="#383838"/>
<rect width="48.9991" height="4.55446" rx="2.27723" transform="translate(582.373 447.586) scale(2) rotate(7.02245)" fill="#383838"/>
<rect width="48.9991" height="4.55446" rx="2.27723" transform="translate(574.895 508.288) scale(2) rotate(7.02245)" fill="#383838"/>
<rect width="48.9991" height="4.55446" rx="2.27723" transform="translate(567.418 568.989) scale(2) rotate(7.02245)" fill="#383838"/>
<rect width="48.9991" height="4.55446" rx="2.27723" transform="translate(559.941 629.69) scale(2) rotate(7.02245)" fill="#383838"/>
<rect width="48.9991" height="4.55446" rx="2.27723" transform="translate(552.464 690.391) scale(2) rotate(7.02245)" fill="#383838"/>
<path fill-rule="evenodd" clip-rule="evenodd" d="M32.6016 0.000589426C30.945 -0.0274782 28.7059 0.950358 27.6006 2.18465L0.606715 32.3286C-0.498559 33.5628 -0.051611 34.5862 1.60499 34.6142L1.86541 34.6187C3.52201 34.6467 5.76093 33.6689 6.86632 32.4346L9.57615 29.4085L51.9482 30.1264L49.7336 32.5995C48.6283 33.8338 49.0751 34.8571 50.7318 34.8852L50.9921 34.8896C52.6487 34.9176 54.8878 33.9398 55.993 32.7055L83.0928 2.44338C84.1981 1.20909 83.7512 0.185741 82.0945 0.157685L81.8342 0.153266C80.1776 0.125195 77.9386 1.10303 76.8333 2.33732L74.9369 4.45502L32.5649 3.73709L33.8601 2.29071C34.9654 1.05642 34.5186 0.0330679 32.8619 0.00501206L32.6016 0.000589426ZM32.008 4.35889L28.8263 7.91203L71.1982 8.62997L74.3801 5.07682L32.008 4.35889ZM28.2694 8.53383L25.0875 12.087L67.4596 12.8049L70.6415 9.25176L28.2694 8.53383ZM24.5308 12.7088L21.3489 16.2619L63.721 16.9798L66.9028 13.4267L24.5308 12.7088ZM20.7921 16.8837L17.6103 20.4368L59.9823 21.1548L63.1642 17.6016L20.7921 16.8837ZM17.0535 21.0586L13.8716 24.6118L56.2437 25.3297L59.4254 21.7766L17.0535 21.0586ZM13.3149 25.2336L10.133 28.7867L52.5049 29.5046L55.6868 25.9515L13.3149 25.2336Z" transform="translate(483.363 756.368) scale(2) rotate(5.51346)" fill="url(#paint31_linear)"/>
<path d="M13.8229 1.61882C15.9591 2.89452 14.713 14.5531 13.8229 20.2229H6.88002C6.45276 17.2462 4.56572 16.1477 3.67561 15.9705C-1.66506 16.502 -0.062856 4.27654 1.53934 1.61882C3.14154 -1.0389 11.1525 0.0241875 13.8229 1.61882Z" transform="translate(597.274 325.448) scale(2)" fill="#FEB6B6"/>
<path d="M4.37374 6.5114H0.101213C-0.432853 3.32213 1.16934 0.664431 4.37374 0.132887C7.57814 -0.398657 13.9869 0.664416 15.0551 3.32213C15.9096 5.44831 14.877 12.8899 14.521 16.0792C14.165 16.0792 13.3461 16.1855 12.9188 16.6107C12.4916 17.036 9.18034 15.7248 7.57814 15.0161L8.64627 12.8899V8.63757C8.64627 6.93663 6.51001 7.22012 5.44187 7.57448L4.37374 6.5114Z" transform="translate(597.071 324.119) scale(2)" fill="black"/>
<path d="M9.07913 7.44161C12.4972 10.4183 28.6616 10.8081 36.3165 10.6309V17.5409C20.9354 17.9662 11.7495 13.8201 9.07913 11.694L0 3.72081L1.6022 0C2.67033 1.24027 5.6611 4.46497 9.07913 7.44161Z" transform="translate(503.278 355.214) scale(2)" fill="#FEB6B6"/>
<path d="M9.07913 20.7302L5.34066 12.2255L0 17.0094C0.356044 17.1866 1.49539 18.923 3.2044 24.451C4.91341 29.9791 9.6132 30.298 11.7495 29.7665L20.2945 7.44161L21.8967 3.18926V0L18.1583 3.18926V1.59463L17.0901 5.31544L9.07913 20.7302Z" transform="translate(644.271 374.35) scale(2)" fill="#FEB6B6"/>
<path d="M19.2264 0L0 4.78389L2.13627 23.3879L0 60.596H8.011L11.2154 35.6134L6.4088 15.9463L13.8857 34.0188L11.2154 60.596H19.2264L23.4989 34.0188L19.2264 0Z" transform="translate(599.41 444.513) scale(2)" fill="#090043"/>
<path d="M14.4198 0L0 4.78389C0 7.3353 2.49231 12.9342 3.73847 15.4148L12.2835 11.1624C11.9275 24.0967 11.429 49.5399 12.2835 47.8389C13.138 46.138 27.9495 42.8779 35.2484 41.4604V20.7302L38.4528 23.9195L43.7934 16.4779L42.1912 15.4148C42.1912 16.1235 41.9776 15.84 41.1231 9.03624C40.2686 2.23248 30.4418 0.177181 25.6352 0H14.4198Z" transform="translate(569.502 364.782) scale(2)" fill="#FF8C00"/>
<rect width="4.27253" height="3.18926" transform="translate(601.546 565.705) scale(2)" fill="black"/>
<rect width="4.27253" height="3.18926" transform="translate(625.045 565.705) scale(2)" fill="black"/>
<path d="M7.21295 0.646258C6.7857 2.3472 3.11844 1.35498 1.33822 0.646258C-0.37079 0.646258 -0.0859549 3.1268 0.270089 4.36707H13.6217V2.24089H9.34922C8.81515 1.00062 7.64021 -1.05468 7.21295 0.646258Z" transform="translate(597.274 567.832) scale(2)" fill="#543007"/>
<path d="M7.21295 0.646258C6.7857 2.3472 3.11844 1.35498 1.33822 0.646258C-0.37079 0.646258 -0.0859549 3.1268 0.270089 4.36707H13.6217V2.24089H9.34922C8.81515 1.00062 7.64021 -1.05468 7.21295 0.646258Z" transform="translate(620.773 567.832) scale(2)" fill="#543007"/>
<g filter="url(#filter11_b)">
<ellipse cx="80.5" cy="6" rx="80.5" ry="6" transform="translate(0 792) scale(2)" fill="url(#paint32_linear)" fill-opacity="0.5"/>
</g>
<ellipse cx="65.3725" cy="4.58824" rx="65.3725" ry="4.58824" transform="translate(23.7717 793.412) scale(2)" fill="url(#paint33_linear)" fill-opacity="0.5"/>
<ellipse cx="42.6812" cy="3.17647" rx="42.6812" ry="3.17647" transform="translate(73.4766 796.235) scale(2)" fill="url(#paint34_linear)" fill-opacity="0.5"/>
<g filter="url(#filter12_b)">
<ellipse cx="75.4764" cy="2.92786" rx="75.4764" ry="2.92786" transform="translate(18.1487 797.782) scale(2)" fill="url(#paint35_linear)" fill-opacity="0.5"/>
</g>
<ellipse cx="61.2929" cy="2.23896" rx="61.2929" ry="2.23896" transform="translate(80.4373 798.471) scale(2)" fill="url(#paint36_linear)" fill-opacity="0.5"/>
<ellipse cx="40.0177" cy="1.55005" rx="40.0177" ry="1.55005" transform="translate(87.04 799.849) scale(2)" fill="url(#paint37_linear)" fill-opacity="0.5"/>
<rect width="1.30127" height="104.756" transform="translate(110.542 802.987) scale(2) rotate(-90)" fill="#A00000"/>
<rect width="1.30127" height="104.756" transform="translate(110.542 799.083) scale(2) rotate(-90)" fill="#A00000"/>
<rect width="1.30127" height="104.756" transform="translate(110.542 795.18) scale(2) rotate(-90)" fill="#A00000"/>
<rect width="1.30127" height="104.756" transform="translate(110.542 791.276) scale(2) rotate(-90)" fill="#A00000"/>
<rect width="1.30127" height="104.756" transform="translate(110.542 787.372) scale(2) rotate(-90)" fill="#A00000"/>
<rect width="1.30127" height="104.756" transform="translate(110.542 783.468) scale(2) rotate(-90)" fill="#A00000"/>
<rect width="1.30127" height="104.756" transform="translate(110.542 779.564) scale(2) rotate(-90)" fill="#A00000"/>
<rect width="1.30127" height="104.756" transform="translate(110.542 775.661) scale(2) rotate(-90)" fill="#A00000"/>
<rect width="1.30127" height="104.756" transform="translate(110.542 771.757) scale(2) rotate(-90)" fill="#A00000"/>
<rect width="1.30127" height="104.756" transform="translate(110.542 767.853) scale(2) rotate(-90)" fill="#A00000"/>
<rect width="1.30127" height="104.756" transform="translate(110.542 763.949) scale(2) rotate(-90)" fill="#A00000"/>
<rect width="1.30127" height="104.756" transform="translate(110.542 760.045) scale(2) rotate(-90)" fill="#A00000"/>
<rect width="1.30127" height="104.756" transform="translate(110.542 756.141) scale(2) rotate(-90)" fill="#A00000"/>
<rect width="1.30127" height="104.756" transform="translate(110.542 752.238) scale(2) rotate(-90)" fill="#A00000"/>
<path d="M22.7813 0L27.6612 6.18105L28.3119 6.50636L26.6852 8.78359L23.4319 5.85573V26.3508C19.4195 27.3267 10.7441 29.3437 8.14144 29.604C5.53881 29.8642 1.85174 31.8812 0.33354 32.8571L0.00821015 32.5318C-0.317119 30.9052 9.11743 23.7482 12.0454 22.7723C14.3878 21.9915 17.3591 18.3263 18.552 16.5912V4.22914C18.552 1.62659 21.3715 0.325318 22.7813 0Z" transform="translate(593.052 395.038) scale(2)" fill="black" fill-opacity="0.2"/>
<path d="M11.0612 0H0C0 0.780764 1.73509 4.01226 2.60263 5.53041L11.0612 1.62659V0Z" transform="translate(572.248 384.628) scale(2)" fill="black" fill-opacity="0.2"/>
<path d="M15.1789 1.00157L0 0V6.00942L16.1908 5.3417L15.1789 1.00157Z" transform="translate(411.791 687.879) scale(2)" fill="#FFCFCF"/>
<rect width="8.52147" height="82.4148" transform="translate(439.06 631.219) scale(2)" fill="#A00000"/>
<path d="M5.53891 10.6089L4.68677 17.4769L0 12.7551L1.27821 6.74567L2.13035 2.88244H5.53891C6.6751 1.16545 9.37354 -1.58173 11.0778 1.16545C12.7821 3.91264 11.2198 8.60574 10.2257 10.6089H5.53891Z" transform="translate(386.159 658.503) scale(2.00002) rotate(-29.5328)" fill="#FFCFCF"/>
<rect width="2.55644" height="3.43395" transform="translate(425.425 787.464) scale(2)" fill="#FFCFCF"/>
<rect width="3.43395" height="5.11288" transform="translate(347.028 782.313) scale(2) rotate(-90)" fill="#FFCFCF"/>
<path d="M24.5828 9.73446H21.3961C20.7891 12.7646 19.393 18.8249 18.6647 18.8249C17.7542 18.8249 11.3809 23.5865 11.8361 26.1838C12.2003 28.2616 8.6495 36.8614 6.82859 40.9016C5.9181 40.613 3.73293 39.9492 2.27618 39.6029C0.455236 39.1701 0 37.4386 0 34.4084C0 31.3783 3.64189 30.9454 6.82859 29.2139C10.0153 27.4824 8.19429 26.6166 6.82859 25.318C5.46288 24.0194 10.4705 19.2577 11.3809 18.8249C12.1093 18.4786 15.3263 16.0833 16.8438 14.929C15.6298 10.6002 15.0228 1.59639 22.3066 0.211184C31.4113 -1.52032 31.4113 8.00296 30.0456 6.70433C28.953 5.66543 25.9485 8.29154 24.5828 9.73446Z" transform="translate(347.12 655.009) scale(2.00001) rotate(-17.6191)" fill="black"/>
<path d="M0 6.00942V0C2.72687 3.77735 5.96503 3.8632 7.24325 3.43395L8.52147 5.58017H4.26074L1.27822 3.43395L0 6.00942Z" transform="translate(422.017 787.464) scale(2)" fill="black"/>
<path d="M0 5.96503V0C2.74716 3.74945 6.00942 3.83466 7.29715 3.40859L8.58488 5.53896H4.29244L1.28773 3.40859L0 5.96503Z" transform="translate(353.845 773.728) scale(2) rotate(90)" fill="black"/>
<path d="M15.0571 9.17021L2.27491 12.1749C-2.83797 8.74096 1.84884 3.30388 4.83135 1.01458C5.96755 1.15766 10.1147 1.18627 17.6136 0.156087C25.1125 -0.874098 25.5669 3.44696 24.8568 5.73626L17.6136 31.9201H15.0571V9.17021Z" transform="translate(395.311 724.482) scale(2)" fill="#434242"/>
<path d="M7.66936 12.5159C1.87476 6.33479 4.68685 1.64172 6.81722 0.0678267C7.49896 -0.553186 16.1908 3.24302 20.4515 5.21875L22.1558 6.93573L25.9905 19.3838C33.1485 31.4026 27.5528 33.835 23.8601 33.5489L0 24.5347V20.6715L20.4515 24.5347C18.6052 23.1039 13.464 18.697 7.66936 12.5159Z" transform="translate(354.697 733.244) scale(2)" fill="#585757"/>
<path d="M10.2708 9.76642C11.9826 0.95502 17.2606 -0.366691 19.6856 0.0738791C20.9695 2.86416 23.9651 9.41397 25.6769 13.291C27.3887 17.168 22.396 22.8367 19.6856 25.1864C18.6871 28.1235 16.0053 34.5265 13.2664 36.6412C10.5275 38.7559 3.28094 32.8229 0 29.5921C2.71034 26.6549 8.55898 18.5778 10.2708 9.76642Z" transform="translate(367.941 674.161) scale(2)" fill="#681C5C"/>
<path d="M9.1809 17.599C9.1809 15.5386 5.20422 7.29715 3.21587 3.43395C1.79563 2.00314 -0.789219 1.63113 0.233357 11.5896C1.25593 21.548 7.47661 24.61 10.4591 24.8962C15.714 20.0314 26.6499 10.216 28.3542 9.87261C30.0585 9.52922 31.6208 6.00942 32.1889 4.29244L29.6324 0L26.6499 2.14622L26.2238 5.15093C20.5429 10.1588 9.1809 19.6594 9.1809 17.599Z" transform="translate(399.861 681.011) scale(2)" fill="#FFCFCF"/>
<path d="M7.7618 9.01412L1.37069 12.4481C-1.18575 9.44337 0.09247 0 3.07499 0C5.461 0 7.1937 6.00942 7.7618 9.01412Z" transform="translate(398.156 684.445) scale(2)" fill="#7F2D72"/>
<path d="M13.0583 21.4228C17.743 20.1216 17.8298 10.0367 17.2876 5.15693C16.6369 3.85566 18.2636 1.57843 17.9382 0.277155C17.6129 -1.02412 12.0823 2.55438 12.0823 4.83161C12.0823 6.65339 7.96148 13.8321 5.90106 17.1937C5.38053 18.495 2.43088 22.0735 1.02113 23.7001C-1.58151 30.8571 1.34646 31.1824 3.62376 34.7609C5.4456 37.6237 6.55172 37.6888 6.87705 37.3634C2.71284 30.8571 3.84065 25.9773 4.92508 24.3507C5.68418 23.9169 8.37357 22.7241 13.0583 21.4228Z" transform="translate(363.296 689.222) scale(2)" fill="black" fill-opacity="0.2"/>
<path d="M18.8691 4.55445C17.0473 3.25318 5.5306 0.975955 0 0L21.1464 8.13296C24.2696 9.43423 26.3517 8.67515 27.0023 8.13296C29.605 6.50636 29.2796 1.62659 27.9783 0.975955C26.9373 0.455445 25.1588 3.14474 24.3997 4.55445C23.3153 5.09665 20.6909 5.85573 18.8691 4.55445Z" transform="translate(355.579 782.167) scale(2)" fill="black" fill-opacity="0.2"/>
<path d="M2.92796 4.69816C2.92796 3.91739 3.36174 1.33653 3.57862 0.1437C3.83888 -0.116555 3.90395 0.0352606 3.90395 0.1437C3.38342 1.96548 6.07281 3.93908 7.48257 4.69816L4.87994 6.97538C2.79783 6.97538 0.759101 5.45723 0 4.69816C0.975988 5.02347 2.92796 5.47892 2.92796 4.69816Z" transform="translate(410.885 716.816) scale(2)" fill="black" fill-opacity="0.05"/>
<path d="M2.92796 20.8204V0L7.48257 17.5672L7.15724 21.471L4.22928 43.2673H0V42.942L2.92796 20.8204Z" transform="translate(607.384 478.97) scale(2)" fill="black" fill-opacity="0.4"/>
<path d="M6.83191 9.10891C5.5306 8.84866 2.81952 2.92786 1.62665 0L0 1.95191C0.260263 2.47242 1.84353 6.50636 2.60263 8.45827C4.16421 13.1429 8.67545 13.2296 10.7359 12.6874L13.9892 3.90382C13.2301 4.33758 11.6468 5.66054 11.3865 7.48232C11.0612 9.75955 8.45856 9.43423 6.83191 9.10891Z" transform="translate(646.423 408.702) scale(2)" fill="black" fill-opacity="0.2"/>
<path d="M0 29.604L2.60263 8.78359L3.57862 0L8.78389 9.43423C7.91634 16.1575 6.18125 29.7341 6.18125 30.2546C6.18125 30.7751 5.31371 31.7727 4.87994 32.2065C3.90395 32.3149 1.75678 32.4017 0.975988 31.8812C0.195197 31.3607 0 30.1462 0 29.604Z" transform="translate(636.012 715.802) scale(2)" fill="black" fill-opacity="0.2"/>
<path d="M1.95198 194.409C1.95198 195.19 0.650658 195.819 0 196.036L21.1464 24.2678C21.6886 19.2796 22.9032 8.06693 23.4237 3.12209C23.9442 -1.82275 24.9419 0.194224 25.3757 1.82081L14.3145 97.1391L1.95198 194.409Z" transform="translate(546.222 384.24) scale(2)" fill="black" fill-opacity="0.2"/>
<path d="M0 3.5785C0.78079 3.5785 3.79551 1.19283 5.20527 0L4.87994 4.22914L0 3.5785Z" transform="translate(663.991 459.451) scale(2)" fill="black" fill-opacity="0.2"/>
<path d="M0 3.5785C0.78079 3.5785 2.81952 1.10108 4.22928 0L3.90395 4.22914L0 3.5785Z" transform="translate(658.785 520.611) scale(2)" fill="black" fill-opacity="0.2"/>
<path d="M0 3.5785C0.78079 3.5785 2.81952 1.10108 4.22928 0L3.90395 4.22914L0 3.5785Z" transform="translate(650.327 580.47) scale(2)" fill="black" fill-opacity="0.2"/>
<path d="M0 3.90382C0.78079 3.90382 2.81952 1.10108 4.22928 0L3.90395 4.22914L0 3.90382Z" transform="translate(643.82 641.629) scale(2)" fill="black" fill-opacity="0.2"/>
<path d="M0 3.5785C0.78079 3.5785 2.81952 1.10108 4.22928 0L3.90395 4.22914L0 3.5785Z" transform="translate(636.012 702.789) scale(2)" fill="black" fill-opacity="0.2"/>
<path d="M32.8582 2.27723L0 0L31.2316 3.90382L32.8582 2.27723Z" transform="translate(576.152 702.789) scale(2)" fill="black" fill-opacity="0.2"/>
<path d="M32.8582 2.27723L0 0L31.2316 3.90382L32.8582 2.27723Z" transform="translate(587.864 641.629) scale(2)" fill="black" fill-opacity="0.2"/>
<path d="M32.8582 2.27723L0 0L31.2316 3.90382L32.8582 2.27723Z" transform="translate(581.357 573.963) scale(2)" fill="black" fill-opacity="0.2"/>
<path d="M32.8582 2.27723L0 0L31.2316 3.90382L32.8582 2.27723Z" transform="translate(581.357 575.264) scale(2)" fill="black" fill-opacity="0.2"/>
<path d="M32.8582 2.27723L0 0L31.2315 3.90383L32.8582 2.27723Z" transform="translate(651.767 586.249) scale(-2.00001 1.99999) rotate(-16.6172)" fill="black" fill-opacity="0.2"/>
<path d="M0 4.55446V4.22914L3.83641 0.712548C4.04264 0.241568 6.35311 0.0412744 7.48257 0L6.83191 4.55446H5.5306H0Z" transform="translate(611.288 356) scale(2)" fill="black" fill-opacity="0.2"/>
<path d="M17.8931 0L0 0.325318C3.38342 2.40736 14.206 2.92786 19.1944 2.92786L17.8931 0Z" transform="translate(536.462 384.628) scale(2)" fill="black" fill-opacity="0.2"/>
<path d="M0.874005 17.7732C-1.28217 14.7572 1.05369 4.66771 2.49114 0C5.18635 0.897637 11.008 2.80063 12.7329 3.23149C14.8891 3.77008 14.8891 7.00157 15.9672 8.61732C17.0453 10.2331 8.95963 19.9276 7.88155 20.4661C6.80346 21.0047 3.56923 21.5433 0.874005 17.7732Z" transform="translate(425.144 22.1367) scale(-2 2)" fill="black"/>
<path d="M16.1713 11.3102L21.5618 0C24.5804 2.15433 25.3351 9.1559 25.3351 12.3874L21.5618 16.6961H16.1713L0 15.6189L1.61713 11.3102H16.1713Z" transform="translate(466.519 68.4548) scale(-2 2)" fill="#D6AF9E"/>
<path d="M7.54662 4.84724L22.6398 0L4.8514 32.3149H0V26.9291C0.431235 7.97102 5.21076 4.30866 7.54662 4.84724Z" transform="translate(464.363 110.464) scale(-2 2)" fill="#002B21"/>
<path d="M0 9.1559L3.23426 2.69291C6.46853 5.38582 14.5542 0 18.3275 0C21.3461 0 23.1789 5.02677 23.7179 7.54015L21.0227 13.4646V18.8504C22.3164 26.606 20.4837 35.0079 19.4056 38.2393L16.7104 36.6236L1.61713 31.2378V17.2346L0 9.1559Z" transform="translate(423.396 47.9886) scale(-2 2)" fill="#6C0000"/>
<path d="M4.25328 7.43396C6.80525 4.88517 16.6587 1.41599 21.2664 0L38.8112 5.84096V13.8059C38.8112 16.7795 22.1525 16.4609 13.8232 15.9299L5.84826 37.7008H0C0.35444 28.6738 1.70131 9.98274 4.25328 7.43396Z" transform="translate(460.051 101.847) scale(-2 2)" fill="#004333"/>
<path d="M15.0932 0.444582C24.1492 -0.848016 50.8498 0.983164 63.0681 2.06033V4.75324C62.7088 5.29182 61.5588 6.04584 59.8339 4.75324C58.1089 3.46064 19.2259 4.21466 0 4.75324V2.06033C1.25777 2.06033 6.03729 1.73718 15.0932 0.444582Z" transform="translate(559.235 82.4579) scale(-2 2)" fill="#4C0505"/>
<path d="M0.0460961 3.15264C0.477331 5.30697 3.46004 6.56366 4.89749 6.92271L6.51462 3.15264C7.41303 3.15264 8.6708 2.72177 6.51462 0.998307C3.8194 -1.15602 -0.492948 0.459724 0.0460961 3.15264Z" transform="translate(476.314 85.8472) scale(-2 2)" fill="#D6AF9E"/>
<ellipse cx="7.54662" cy="8.07874" rx="7.54662" ry="8.07874" transform="translate(419.083 11.3651) scale(-2 2)" fill="#D6AF9E"/>
<path d="M5.39044 10.7921C4.95921 7.77608 1.61713 6.30396 0 5.9449C0 1.09766 7.00757 0.559075 9.70279 0.0204925C12.398 -0.51809 17.2494 9.71498 18.8665 12.4079C20.1602 14.5622 19.4056 16.8961 18.8665 17.7937C17.4291 19.948 14.2308 24.5799 12.9371 25.8725C11.3199 27.4882 5.39044 26.9496 3.77331 23.1795C2.15618 19.4095 5.92948 14.5622 5.39044 10.7921Z" transform="translate(421.24 9.21075) scale(-2 2)" fill="#1E1D1D"/>
<path d="M8.41635 6.64965L9.67821 0H17.2494L16.6185 10.5286H12.8329C11.3607 12.191 7.53304 15.6267 3.99983 16.07C-0.416693 16.6241 -1.04762 14.4076 1.4761 13.2993C3.49508 12.4127 6.94417 8.49678 8.41635 6.64965Z" transform="translate(485.925 170.785) scale(-2 2)" fill="black"/>
<path d="M8.41635 6.64965L9.67821 0H17.2494L16.6185 10.5286H12.8329C11.3607 12.191 7.53304 15.6267 3.99983 16.07C-0.416693 16.6241 -1.04762 14.4076 1.4761 13.2993C3.49508 12.4127 6.94417 8.49678 8.41635 6.64965Z" transform="translate(479.456 170.785) scale(-2 2)" fill="#1E1E1E"/>
<path d="M7.05357 14.5417C9.64098 14.5417 13.5221 4.84724 15.1392 0C15.6783 0.897637 17.0798 3.66236 18.3735 7.54015C19.6672 11.4179 18.9125 19.2094 18.3735 22.6205C12.444 21.0047 0.477228 17.4501 0.0459927 16.1575C-0.493051 14.5417 3.8193 14.5417 7.05357 14.5417Z" transform="translate(419.175 69.532) scale(-2 2)" fill="black" fill-opacity="0.2"/>
<path d="M21.0227 9.75932L26.4132 0.603419C30.7255 -1.55091 31.0849 2.57822 30.7255 4.91208C30.7255 8.35901 25.6944 15.3247 23.1789 18.3766L1.61713 17.2995L0 12.4522H5.92948L21.0227 9.75932Z" transform="translate(437.411 60.785) scale(-2 2)" fill="#D6AF9E"/>
<path d="M0.109173 9.71107C-1.18453 7.9876 9.3362 10.393 14.9063 6.982C17.9609 7.70011 24.474 -0.414283 24.9052 0.0165835C25.4442 0.555166 25.4442 7.55674 24.3662 8.6339C23.2881 9.71107 1.72631 11.8654 0.109173 9.71107Z" transform="translate(432.239 113.663) scale(-2 2)" fill="black" fill-opacity="0.2"/>
<path d="M15.6323 4.30866C15.6323 5.60126 5.21076 6.64252 0 7.00157L15.0932 8.61732L20.4837 0C18.8665 0.897637 15.6323 3.01606 15.6323 4.30866Z" transform="translate(421.24 81.3808) scale(-2 2)" fill="black" fill-opacity="0.2"/>
<path d="M2.15618 2.15433C1.72494 0.861732 0.539044 0.179527 0 0L1.07809 1.61575C1.50932 2.04661 1.97649 2.87244 2.15618 3.23149V2.15433Z" transform="translate(395.365 80.3036) scale(-2 2)" fill="black" fill-opacity="0.2"/>
<path d="M10.2418 1.61575C7.22319 0.754018 2.15618 1.61575 0 2.15433L21.5618 3.23149L23.1789 1.07716V0L10.2418 1.61575Z" transform="translate(466.519 95.3839) scale(-2 2)" fill="black" fill-opacity="0.2"/>
<path d="M4.14826 5.59449C1.27335 2.90158 -2.96713 -1.83795 3.07017 0.747247C9.10746 3.33244 6.30443 5.05591 4.14826 5.59449Z" transform="translate(443.551 84.1949) scale(-2 2)" fill="#D6AF9E"/>
<path d="M18.3275 0L0 1.61575H18.8665L45.2797 1.07716L18.3275 0Z" transform="translate(535.517 87.8438) scale(-2 2)" fill="#020000" fill-opacity="0.2"/>
<path d="M9.10922 2.60255L0.975988 0H0V32.2065H9.10922V2.60255Z" transform="translate(531.256 383.977) scale(2)" fill="black" fill-opacity="0.5"/>
<g filter="url(#filter13_b)">
<ellipse cx="25.0503" cy="2.92786" rx="25.0503" ry="2.92786" transform="translate(937.918 125.024) scale(-2 2)" fill="url(#paint38_linear)" fill-opacity="0.5"/>
</g>
<ellipse cx="20.3429" cy="2.23896" rx="20.3429" ry="2.23896" transform="translate(930.521 125.713) scale(-2 2)" fill="url(#paint39_linear)" fill-opacity="0.5"/>
<ellipse cx="13.2817" cy="1.55005" rx="13.2817" ry="1.55005" transform="translate(915.053 127.091) scale(-2 2)" fill="url(#paint40_linear)" fill-opacity="0.5"/>
<g filter="url(#filter14_b)">
<ellipse cx="19.1944" cy="1.62659" rx="19.1944" ry="1.62659" transform="translate(820.799 134.133) scale(2 -2)" fill="url(#paint41_linear)" fill-opacity="0.5"/>
</g>
<ellipse cx="15.5874" cy="1.24386" rx="15.5874" ry="1.24386" transform="translate(826.468 133.75) scale(2 -2)" fill="url(#paint42_linear)" fill-opacity="0.5"/>
<ellipse cx="10.1769" cy="0.861136" rx="10.1769" ry="0.861136" transform="translate(838.319 132.985) scale(2 -2)" fill="url(#paint43_linear)" fill-opacity="0.5"/>
<g filter="url(#filter15_b)">
<ellipse cx="17.8931" cy="1.62659" rx="17.8931" ry="1.62659" transform="translate(934.014 134.133) scale(2) rotate(-180)" fill="url(#paint44_linear)" fill-opacity="0.5"/>
</g>
<ellipse cx="14.5306" cy="1.24386" rx="14.5306" ry="1.24386" transform="translate(928.73 133.75) scale(2) rotate(-180)" fill="url(#paint45_linear)" fill-opacity="0.5"/>
<ellipse cx="9.48695" cy="0.861136" rx="9.48695" ry="0.861136" transform="translate(917.682 132.985) scale(2) rotate(-180)" fill="url(#paint46_linear)" fill-opacity="0.5"/>
<g filter="url(#filter16_b)">
<ellipse cx="19.1944" cy="1.62659" rx="19.1944" ry="1.62659" transform="translate(327.6 135.434) scale(2 -2)" fill="url(#paint47_linear)" fill-opacity="0.5"/>
</g>
<ellipse cx="15.5874" cy="1.24386" rx="15.5874" ry="1.24386" transform="translate(333.268 135.051) scale(2 -2)" fill="url(#paint48_linear)" fill-opacity="0.5"/>
<ellipse cx="10.1769" cy="0.861136" rx="10.1769" ry="0.861136" transform="translate(345.12 134.286) scale(2 -2)" fill="url(#paint49_linear)" fill-opacity="0.5"/>
<rect width="3.93958" height="6.61441" transform="matrix(-1.93067 -0.522015 -0.525119 1.92983 830.444 192)" fill="black"/>
<rect width="3.93958" height="6.61441" transform="matrix(-1.93067 -0.522015 -0.525119 1.92983 806.801 181.525)" fill="black"/>
<path d="M27.6404 0H3.341C-8.21761 1.04744 12.9732 14.8388 25.0134 21.6035L33.551 39.2792C35.9591 40.3703 40.5124 41.6359 39.4617 37.9699C38.4109 34.3038 31.143 11.1291 27.6404 0Z" transform="translate(875.217 102.22) scale(-2 2)" fill="#050229"/>
<path d="M4.90613 0L0 3.57083V7.85583C4.63357 7.61778 14.5549 6.99883 17.1715 6.4275C20.4422 5.71333 16.3538 3.57083 13.9007 3.57083C11.9383 3.57083 7.08664 1.19028 4.90613 0Z" transform="translate(830.444 197.799) scale(-2 2)" fill="#B20000"/>
<path d="M4.55569 0L0 3.57083V7.85583C4.3026 7.61778 13.5152 6.99883 15.9449 6.4275C18.9821 5.71333 15.1856 3.57083 12.9078 3.57083C11.0855 3.57083 6.58045 1.19028 4.55569 0Z" transform="translate(806.801 184.706) scale(-2 2)" fill="#870000"/>
<path d="M37.3136 1.97145L17.6114 0.662145C13.0142 -0.210725 3.16316 -0.909021 0.536202 3.28076C-2.09076 7.47053 5.5712 11.1366 9.73055 12.4459H30.0895L32.0597 20.9564L37.3136 45.8332L43.2243 43.2146C42.5675 37.7591 41.254 24.7534 41.254 16.3738C41.254 7.99426 38.6271 3.28076 37.3136 1.97145Z" transform="translate(907.698 104.823) scale(-2 2)" fill="#100C3D"/>
<path d="M1.53403 8.32533L0 13.4486C4.90889 17.5472 8.18149 15.1564 9.20417 13.4486C8.69283 12.3813 8.28376 10.5027 10.7382 11.5274C13.1926 12.552 13.2949 8.11186 13.0392 5.76369V1.92123L9.20417 0L7.67015 1.92123L3.06806 5.76369L1.53403 8.32533Z" transform="translate(882.983 9.25897) scale(-2 2)" fill="#EFBA80"/>
<path d="M1.31348 11.7837L0 1.30931L4.59718 0V6.54653L5.91065 9.81979L3.2837 14.4024L1.31348 11.7837Z" transform="translate(855.4 65.5591) scale(-2 2)" fill="#EFBA80"/>
<path d="M23.293 0.831121C22.2423 4.49718 17.1635 2.35864 14.7554 0.831121C3.72221 2.92601 0.963901 27.0172 0.9639 38.801C-0.568492 39.2374 -1.40036 39.8484 7.53129 38.801C16.4629 37.7535 24.3876 33.5638 27.2335 31.5998L28.547 17.1974C30.0793 17.6339 33.1441 17.8521 33.1441 15.2335C33.1441 11.9602 24.6065 -3.75145 23.293 0.831121Z" transform="translate(912.493 33.7828) scale(-2 2)" fill="#A83131"/>
<path d="M19.7022 7.92273C17.0752 6.87528 15.9807 3.12194 15.7617 1.3762C12.084 -4.90847 4.59718 11.8506 1.31348 21.0158L0 21.6704L8.53761 21.0158C12.2154 21.5395 22.767 16.4332 27.5831 13.8146C26.0507 12.2871 22.3291 8.97017 19.7022 7.92273Z" transform="translate(913.193 69.3532) scale(-2 2)" fill="black" fill-opacity="0.2"/>
<path d="M7.22413 0H1.97022L0 15.057L17.0752 20.2942L23.6426 18.9849V17.021H19.7022L7.22413 11.1291V0Z" transform="translate(896.118 64.2498) scale(-2 2)" fill="#EFBA80"/>
<path d="M1.78741 4.72433L0.414298 13.1649C0.204443 14.4549 1.26801 15.5963 2.56959 15.4779L20.1625 13.877C21.0128 13.7997 21.7202 13.191 21.9236 12.3617L24.2509 2.87466C24.5884 1.49896 23.4282 0.218086 22.0259 0.418239L3.47886 3.06553C2.61298 3.18912 1.92785 3.86102 1.78741 4.72433Z" transform="translate(851.459 69.487) scale(-2 2)" fill="black"/>
<rect width="25.1551" height="2.97372" rx="1.48686" transform="matrix(-1.9894 -0.205645 -0.206944 1.98926 859.34 100.497)" fill="black"/>
<path d="M0.0597226 8.15345C-0.511262 11.4453 3.15255 12.7255 5.05583 12.9541C7.9278 14.0514 10.5348 8.38205 11.4794 5.41023L15.7617 6.78184V3.35282C15.048 2.89561 13.4778 1.70689 12.9068 0.609603C12.1931 -0.762004 10.7656 0.609603 9.33817 0.609603C7.91071 0.609603 5.05583 1.98121 3.62833 1.98121C2.20083 1.98121 0.773453 4.03862 0.0597226 8.15345Z" transform="translate(888.237 1.40308) scale(-2 2)" fill="black"/>
<ellipse cx="1.96979" cy="2.61919" rx="1.96979" ry="2.61919" transform="matrix(-1.93046 0.522821 0.525929 1.92961 827.689 79.9614)" fill="white"/>
<path d="M10.2041 0L0.353039 1.96396C-1.74853 5.10629 6.04478 8.94692 10.2041 10.4744H27.9361L29.9063 11.7837L35.1602 34.0419V28.8047C33.8467 22.6946 31.2198 10.3435 31.2198 9.81979C31.2198 9.16514 28.5928 8.51049 25.9659 8.51049C23.8643 8.51049 14.5824 2.83683 10.2041 0Z" transform="translate(907.332 108.766) scale(-2 2)" fill="black" fill-opacity="0.2"/>
<path d="M4.59718 1.30931C3.54639 1.83303 1.09457 0.654653 0 0V3.92792L17.0752 2.61861C13.3537 1.96396 5.64796 0.785583 4.59718 1.30931Z" transform="translate(830.444 205.655) scale(-2 2)" fill="black" fill-opacity="0.2"/>
<path d="M7.22413 1.96396C6.69874 1.96396 2.18913 0.654653 0 0V3.92792C1.53239 3.7097 8.80031 3.27326 9.85109 3.27326C10.9019 3.27326 17.0752 2.61861 17.0752 1.96396L13.1348 1.30931C11.3835 1.52752 7.74952 1.96396 7.22413 1.96396Z" transform="translate(806.801 192.562) scale(-2 2)" fill="black" fill-opacity="0.2"/>
<path d="M0 2.61861L4.59718 0L5.91065 1.30931L0 2.61861Z" transform="translate(890.864 85.1987) scale(-2 2)" fill="black" fill-opacity="0.2"/>
<path d="M0 0L3.94044 7.20118C3.41504 7.7249 1.97022 7.4194 1.31348 7.20118L0 0Z" transform="translate(858.027 53.7753) scale(-2 2)" fill="black" fill-opacity="0.2"/>
<path d="M3.2837 9.81979L2.62696 0.654653V0H0L1.31348 11.1291L2.62696 11.7837L3.2837 9.81979Z" transform="translate(855.4 68.1777) scale(-2 2)" fill="#070000" fill-opacity="0.2"/>
<defs>
<filter id="filter0_b" x="467.95" y="758.552" width="209.896" height="38.1216" filterUnits="userSpaceOnUse" color-interpolation-filters="sRGB">
<feFlood flood-opacity="0" result="BackgroundImageFix"/>
<feGaussianBlur in="BackgroundImage" stdDeviation="2"/>
<feComposite in2="SourceAlpha" operator="in" result="effect1_backgroundBlur"/>
<feBlend mode="normal" in="SourceGraphic" in2="effect1_backgroundBlur" result="shape"/>
</filter>
<filter id="filter1_b" x="566.851" y="565.963" width="95.3803" height="25.1089" filterUnits="userSpaceOnUse" color-interpolation-filters="sRGB">
<feFlood flood-opacity="0" result="BackgroundImageFix"/>
<feGaussianBlur in="BackgroundImage" stdDeviation="2"/>
<feComposite in2="SourceAlpha" operator="in" result="effect1_backgroundBlur"/>
<feBlend mode="normal" in="SourceGraphic" in2="effect1_backgroundBlur" result="shape"/>
</filter>
<filter id="filter2_b" x="324.806" y="779.372" width="142.228" height="30.314" filterUnits="userSpaceOnUse" color-interpolation-filters="sRGB">
<feFlood flood-opacity="0" result="BackgroundImageFix"/>
<feGaussianBlur in="BackgroundImage" stdDeviation="2"/>
<feComposite in2="SourceAlpha" operator="in" result="effect1_backgroundBlur"/>
<feBlend mode="normal" in="SourceGraphic" in2="effect1_backgroundBlur" result="shape"/>
</filter>
<filter id="filter3_b" x="18.9961" y="632.328" width="878.773" height="84.9675" filterUnits="userSpaceOnUse" color-interpolation-filters="sRGB">
<feFlood flood-opacity="0" result="BackgroundImageFix"/>
<feGaussianBlur in="BackgroundImage" stdDeviation="2"/>
<feComposite in2="SourceAlpha" operator="in" result="effect1_backgroundBlur"/>
<feBlend mode="normal" in="SourceGraphic" in2="effect1_backgroundBlur" result="shape"/>
</filter>
<filter id="filter4_b" x="410.693" y="658.354" width="454.544" height="51.1344" filterUnits="userSpaceOnUse" color-interpolation-filters="sRGB">
<feFlood flood-opacity="0" result="BackgroundImageFix"/>
<feGaussianBlur in="BackgroundImage" stdDeviation="2"/>
<feComposite in2="SourceAlpha" operator="in" result="effect1_backgroundBlur"/>
<feBlend mode="normal" in="SourceGraphic" in2="effect1_backgroundBlur" result="shape"/>
</filter>
<filter id="filter5_b" x="267.548" y="787.18" width="170.857" height="27.7115" filterUnits="userSpaceOnUse" color-interpolation-filters="sRGB">
<feFlood flood-opacity="0" result="BackgroundImageFix"/>
<feGaussianBlur in="BackgroundImage" stdDeviation="2"/>
<feComposite in2="SourceAlpha" operator="in" result="effect1_backgroundBlur"/>
<feBlend mode="normal" in="SourceGraphic" in2="effect1_backgroundBlur" result="shape"/>
</filter>
<filter id="filter6_b" x="181.661" y="664.86" width="541.732" height="38.1216" filterUnits="userSpaceOnUse" color-interpolation-filters="sRGB">
<feFlood flood-opacity="0" result="BackgroundImageFix"/>
<feGaussianBlur in="BackgroundImage" stdDeviation="2"/>
<feComposite in2="SourceAlpha" operator="in" result="effect1_backgroundBlur"/>
<feBlend mode="normal" in="SourceGraphic" in2="effect1_backgroundBlur" result="shape"/>
</filter>
<filter id="filter7_b" x="480.964" y="765.058" width="84.9698" height="22.5064" filterUnits="userSpaceOnUse" color-interpolation-filters="sRGB">
<feFlood flood-opacity="0" result="BackgroundImageFix"/>
<feGaussianBlur in="BackgroundImage" stdDeviation="2"/>
<feComposite in2="SourceAlpha" operator="in" result="effect1_backgroundBlur"/>
<feBlend mode="normal" in="SourceGraphic" in2="effect1_backgroundBlur" result="shape"/>
</filter>
<filter id="filter8_b" x="543.427" y="766.359" width="126.612" height="25.1089" filterUnits="userSpaceOnUse" color-interpolation-filters="sRGB">
<feFlood flood-opacity="0" result="BackgroundImageFix"/>
<feGaussianBlur in="BackgroundImage" stdDeviation="2"/>
<feComposite in2="SourceAlpha" operator="in" result="effect1_backgroundBlur"/>
<feBlend mode="normal" in="SourceGraphic" in2="effect1_backgroundBlur" result="shape"/>
</filter>
<filter id="filter9_d" x="312.491" y="120.928" width="623.715" height="567.74" filterUnits="userSpaceOnUse" color-interpolation-filters="sRGB">
<feFlood flood-opacity="0" result="BackgroundImageFix"/>
<feColorMatrix in="SourceAlpha" type="matrix" values="0 0 0 0 0 0 0 0 0 0 0 0 0 0 0 0 0 0 255 0"/>
<feOffset dx="1"/>
<feGaussianBlur stdDeviation="2"/>
<feColorMatrix type="matrix" values="0 0 0 0 0 0 0 0 0 0 0 0 0 0 0 0 0 0 0.25 0"/>
<feBlend mode="normal" in2="BackgroundImageFix" result="effect1_dropShadow"/>
<feBlend mode="normal" in="SourceGraphic" in2="effect1_dropShadow" result="shape"/>
</filter>
<filter id="filter10_b" x="352.133" y="120.928" width="116.201" height="27.7115" filterUnits="userSpaceOnUse" color-interpolation-filters="sRGB">
<feFlood flood-opacity="0" result="BackgroundImageFix"/>
<feGaussianBlur in="BackgroundImage" stdDeviation="2"/>
<feComposite in2="SourceAlpha" operator="in" result="effect1_backgroundBlur"/>
<feBlend mode="normal" in="SourceGraphic" in2="effect1_backgroundBlur" result="shape"/>
</filter>
<filter id="filter11_b" x="-8" y="784" width="338" height="40" filterUnits="userSpaceOnUse" color-interpolation-filters="sRGB">
<feFlood flood-opacity="0" result="BackgroundImageFix"/>
<feGaussianBlur in="BackgroundImage" stdDeviation="2"/>
<feComposite in2="SourceAlpha" operator="in" result="effect1_backgroundBlur"/>
<feBlend mode="normal" in="SourceGraphic" in2="effect1_backgroundBlur" result="shape"/>
</filter>
<filter id="filter12_b" x="10.1487" y="789.782" width="317.905" height="27.7115" filterUnits="userSpaceOnUse" color-interpolation-filters="sRGB">
<feFlood flood-opacity="0" result="BackgroundImageFix"/>
<feGaussianBlur in="BackgroundImage" stdDeviation="2"/>
<feComposite in2="SourceAlpha" operator="in" result="effect1_backgroundBlur"/>
<feBlend mode="normal" in="SourceGraphic" in2="effect1_backgroundBlur" result="shape"/>
</filter>
<filter id="filter13_b" x="829.717" y="117.024" width="116.201" height="27.7115" filterUnits="userSpaceOnUse" color-interpolation-filters="sRGB">
<feFlood flood-opacity="0" result="BackgroundImageFix"/>
<feGaussianBlur in="BackgroundImage" stdDeviation="2"/>
<feComposite in2="SourceAlpha" operator="in" result="effect1_backgroundBlur"/>
<feBlend mode="normal" in="SourceGraphic" in2="effect1_backgroundBlur" result="shape"/>
</filter>
<filter id="filter14_b" x="812.799" y="119.627" width="92.7777" height="22.5064" filterUnits="userSpaceOnUse" color-interpolation-filters="sRGB">
<feFlood flood-opacity="0" result="BackgroundImageFix"/>
<feGaussianBlur in="BackgroundImage" stdDeviation="2"/>
<feComposite in2="SourceAlpha" operator="in" result="effect1_backgroundBlur"/>
<feBlend mode="normal" in="SourceGraphic" in2="effect1_backgroundBlur" result="shape"/>
</filter>
<filter id="filter15_b" x="854.441" y="119.627" width="87.5724" height="22.5064" filterUnits="userSpaceOnUse" color-interpolation-filters="sRGB">
<feFlood flood-opacity="0" result="BackgroundImageFix"/>
<feGaussianBlur in="BackgroundImage" stdDeviation="2"/>
<feComposite in2="SourceAlpha" operator="in" result="effect1_backgroundBlur"/>
<feBlend mode="normal" in="SourceGraphic" in2="effect1_backgroundBlur" result="shape"/>
</filter>
<filter id="filter16_b" x="319.6" y="120.928" width="92.7777" height="22.5064" filterUnits="userSpaceOnUse" color-interpolation-filters="sRGB">
<feFlood flood-opacity="0" result="BackgroundImageFix"/>
<feGaussianBlur in="BackgroundImage" stdDeviation="2"/>
<feComposite in2="SourceAlpha" operator="in" result="effect1_backgroundBlur"/>
<feBlend mode="normal" in="SourceGraphic" in2="effect1_backgroundBlur" result="shape"/>
</filter>
<linearGradient id="paint0_linear" x2="1" gradientUnits="userSpaceOnUse" gradientTransform="matrix(-57.2579 -0.975949 8.55419 -501.832 69.2473 253.519)">
<stop stop-color="#7A7A7A"/>
<stop offset="1" stop-color="#7A7A7A" stop-opacity="0"/>
</linearGradient>
<linearGradient id="paint1_linear" x2="1" gradientUnits="userSpaceOnUse" gradientTransform="translate(65.7165 218.013) scale(46.8474 436.027) rotate(-180)">
<stop stop-color="#9B9A9A"/>
<stop offset="1" stop-color="#9B9A9A" stop-opacity="0"/>
</linearGradient>
<linearGradient id="paint2_linear" x2="1" gradientUnits="userSpaceOnUse" gradientTransform="translate(48.4741 167.051) scale(38.0635 334.102) rotate(-180)">
<stop stop-color="#C2C2C2"/>
<stop offset="1" stop-color="#C2C2C2" stop-opacity="0"/>
</linearGradient>
<linearGradient id="paint3_linear" x2="1" gradientUnits="userSpaceOnUse" gradientTransform="matrix(-23.4412 -0.401861 3.50205 -206.637 28.3496 104.39)">
<stop stop-color="#7A7A7A"/>
<stop offset="1" stop-color="#7A7A7A" stop-opacity="0"/>
</linearGradient>
<linearGradient id="paint4_linear" x2="1" gradientUnits="userSpaceOnUse" gradientTransform="translate(26.9041 89.7702) scale(19.1791 179.54) rotate(-180)">
<stop stop-color="#9B9A9A"/>
<stop offset="1" stop-color="#9B9A9A" stop-opacity="0"/>
</linearGradient>
<linearGradient id="paint5_linear" x2="1" gradientUnits="userSpaceOnUse" gradientTransform="translate(19.8451 68.7857) scale(15.583 137.571) rotate(-180)">
<stop stop-color="#C2C2C2"/>
<stop offset="1" stop-color="#C2C2C2" stop-opacity="0"/>
</linearGradient>
<linearGradient id="paint6_linear" x2="1" gradientUnits="userSpaceOnUse" gradientTransform="matrix(-37.2753 -0.631496 5.56884 -324.715 45.0805 164.041)">
<stop stop-color="#7A7A7A"/>
<stop offset="1" stop-color="#7A7A7A" stop-opacity="0"/>
</linearGradient>
<linearGradient id="paint7_linear" x2="1" gradientUnits="userSpaceOnUse" gradientTransform="translate(42.7819 141.067) scale(30.498 282.135) rotate(-180)">
<stop stop-color="#9B9A9A"/>
<stop offset="1" stop-color="#9B9A9A" stop-opacity="0"/>
</linearGradient>
<linearGradient id="paint8_linear" x2="1" gradientUnits="userSpaceOnUse" gradientTransform="translate(31.5569 108.092) scale(24.7796 216.184) rotate(-180)">
<stop stop-color="#C2C2C2"/>
<stop offset="1" stop-color="#C2C2C2" stop-opacity="0"/>
</linearGradient>
<linearGradient id="paint9_linear" x2="1" gradientUnits="userSpaceOnUse" gradientTransform="matrix(-254.779 -3.04266 38.0633 -1564.54 308.127 790.381)">
<stop stop-color="#7A7A7A"/>
<stop offset="1" stop-color="#7A7A7A" stop-opacity="0"/>
</linearGradient>
<linearGradient id="paint10_linear" x2="1" gradientUnits="userSpaceOnUse" gradientTransform="translate(292.416 679.688) scale(208.455 1359.38) rotate(-180)">
<stop stop-color="#9B9A9A"/>
<stop offset="1" stop-color="#9B9A9A" stop-opacity="0"/>
</linearGradient>
<linearGradient id="paint11_linear" x2="1" gradientUnits="userSpaceOnUse" gradientTransform="translate(215.693 520.806) scale(169.37 1041.61) rotate(-180)">
<stop stop-color="#C2C2C2"/>
<stop offset="1" stop-color="#C2C2C2" stop-opacity="0"/>
</linearGradient>
<linearGradient id="paint12_linear" x2="1" gradientUnits="userSpaceOnUse" gradientTransform="translate(206.782 501.153) scale(162.372 1002.31) rotate(-180)">
<stop stop-color="#010101"/>
<stop offset="1" stop-color="#C2C2C2" stop-opacity="0"/>
</linearGradient>
<linearGradient id="paint13_linear" x2="1" gradientUnits="userSpaceOnUse" gradientTransform="translate(167.923 383.235) scale(131.859 766.469) rotate(-180)">
<stop stop-color="#010101"/>
<stop offset="1" stop-color="#C2C2C2" stop-opacity="0"/>
</linearGradient>
<linearGradient id="paint14_linear" x2="1" gradientUnits="userSpaceOnUse" gradientTransform="translate(109.636 265.316) scale(86.09 530.632) rotate(-180)">
<stop stop-color="#010101"/>
<stop offset="1" stop-color="#C2C2C2" stop-opacity="0"/>
</linearGradient>
<linearGradient id="paint15_linear" x2="1" gradientUnits="userSpaceOnUse" gradientTransform="translate(73.0179 167.051) scale(57.3362 334.102) rotate(-180)">
<stop stop-color="#010101"/>
<stop offset="1" stop-color="#C2C2C2" stop-opacity="0"/>
</linearGradient>
<linearGradient id="paint16_linear" x2="1" gradientUnits="userSpaceOnUse" gradientTransform="translate(59.2964 127.745) scale(46.5616 255.49) rotate(-180)">
<stop stop-color="#010101"/>
<stop offset="1" stop-color="#C2C2C2" stop-opacity="0"/>
</linearGradient>
<linearGradient id="paint17_linear" x2="1" gradientUnits="userSpaceOnUse" gradientTransform="translate(38.7142 88.4387) scale(30.3997 176.877) rotate(-180)">
<stop stop-color="#010101"/>
<stop offset="1" stop-color="#C2C2C2" stop-opacity="0"/>
</linearGradient>
<linearGradient id="paint18_linear" x2="1" gradientUnits="userSpaceOnUse" gradientTransform="translate(247.893 315.541) scale(194.654 631.081) rotate(-180)">
<stop stop-color="#010101"/>
<stop offset="1" stop-color="#C2C2C2" stop-opacity="0"/>
</linearGradient>
<linearGradient id="paint19_linear" x2="1" gradientUnits="userSpaceOnUse" gradientTransform="translate(201.309 241.296) scale(158.075 482.592) rotate(-180)">
<stop stop-color="#010101"/>
<stop offset="1" stop-color="#C2C2C2" stop-opacity="0"/>
</linearGradient>
<linearGradient id="paint20_linear" x2="1" gradientUnits="userSpaceOnUse" gradientTransform="translate(131.433 167.051) scale(103.206 334.102) rotate(-180)">
<stop stop-color="#010101"/>
<stop offset="1" stop-color="#C2C2C2" stop-opacity="0"/>
</linearGradient>
<linearGradient id="paint21_linear" x2="1" gradientUnits="userSpaceOnUse" gradientTransform="translate(32.5206 92.8061) scale(25.5363 185.612) rotate(-180)">
<stop stop-color="#010101"/>
<stop offset="1" stop-color="#C2C2C2" stop-opacity="0"/>
</linearGradient>
<linearGradient id="paint22_linear" x2="1" gradientUnits="userSpaceOnUse" gradientTransform="translate(26.4093 70.9693) scale(20.7375 141.939) rotate(-180)">
<stop stop-color="#010101"/>
<stop offset="1" stop-color="#C2C2C2" stop-opacity="0"/>
</linearGradient>
<linearGradient id="paint23_linear" x2="1" gradientUnits="userSpaceOnUse" gradientTransform="translate(17.2424 49.1326) scale(13.5394 98.2652) rotate(-180)">
<stop stop-color="#010101"/>
<stop offset="1" stop-color="#C2C2C2" stop-opacity="0"/>
</linearGradient>
<linearGradient id="paint24_linear" x2="1" gradientUnits="userSpaceOnUse" gradientTransform="translate(52.1556 129.928) scale(40.9544 259.857) rotate(-180)">
<stop stop-color="#010101"/>
<stop offset="1" stop-color="#C2C2C2" stop-opacity="0"/>
</linearGradient>
<linearGradient id="paint25_linear" x2="1" gradientUnits="userSpaceOnUse" gradientTransform="translate(42.3546 99.3571) scale(33.2583 198.714) rotate(-180)">
<stop stop-color="#010101"/>
<stop offset="1" stop-color="#C2C2C2" stop-opacity="0"/>
</linearGradient>
<linearGradient id="paint26_linear" x2="1" gradientUnits="userSpaceOnUse" gradientTransform="translate(27.653 68.7857) scale(21.7141 137.571) rotate(-180)">
<stop stop-color="#010101"/>
<stop offset="1" stop-color="#C2C2C2" stop-opacity="0"/>
</linearGradient>
<linearGradient id="paint27_linear" x2="1" gradientUnits="userSpaceOnUse" gradientTransform="matrix(1.30131 138.26 -175.665 1.65326 172.62 1.3942)">
<stop stop-color="#421043" stop-opacity="0.1"/>
<stop offset="0.286045" stop-color="#421043" stop-opacity="0.5"/>
<stop offset="1" stop-color="#421043"/>
</linearGradient>
<linearGradient id="paint28_linear" x2="1" gradientUnits="userSpaceOnUse" gradientTransform="matrix(-29.5897 -0.516679 4.42062 -265.676 35.7855 134.216)">
<stop stop-color="#7A7A7A"/>
<stop offset="1" stop-color="#7A7A7A" stop-opacity="0"/>
</linearGradient>
<linearGradient id="paint29_linear" x2="1" gradientUnits="userSpaceOnUse" gradientTransform="translate(33.9609 115.419) scale(24.2097 230.838) rotate(-180)">
<stop stop-color="#9B9A9A"/>
<stop offset="1" stop-color="#9B9A9A" stop-opacity="0"/>
</linearGradient>
<linearGradient id="paint30_linear" x2="1" gradientUnits="userSpaceOnUse" gradientTransform="translate(25.0503 88.4387) scale(19.6704 176.877) rotate(-180)">
<stop stop-color="#C2C2C2"/>
<stop offset="1" stop-color="#C2C2C2" stop-opacity="0"/>
</linearGradient>
<linearGradient id="paint31_linear" x2="1" gradientUnits="userSpaceOnUse" gradientTransform="matrix(-24.3117 23.9466 -4.58332 -0.365517 48.601 3.06274)">
<stop stop-color="#383838" stop-opacity="0.53"/>
<stop offset="1" stop-color="#383838" stop-opacity="0"/>
</linearGradient>
<linearGradient id="paint32_linear" x2="1" gradientUnits="userSpaceOnUse" gradientTransform="matrix(-95.0872 -1.05882 14.2058 -544.443 114.998 275.045)">
<stop stop-color="#7A7A7A"/>
<stop offset="1" stop-color="#7A7A7A" stop-opacity="0"/>
</linearGradient>
<linearGradient id="paint33_linear" x2="1" gradientUnits="userSpaceOnUse" gradientTransform="translate(109.134 236.525) scale(77.7987 473.05) rotate(-180)">
<stop stop-color="#9B9A9A"/>
<stop offset="1" stop-color="#9B9A9A" stop-opacity="0"/>
</linearGradient>
<linearGradient id="paint34_linear" x2="1" gradientUnits="userSpaceOnUse" gradientTransform="translate(80.5 181.235) scale(63.2114 362.471) rotate(-180)">
<stop stop-color="#C2C2C2"/>
<stop offset="1" stop-color="#C2C2C2" stop-opacity="0"/>
</linearGradient>
<linearGradient id="paint35_linear" x2="1" gradientUnits="userSpaceOnUse" gradientTransform="translate(142.354 167.051) scale(111.781 334.102) rotate(-180)">
<stop stop-color="#010101"/>
<stop offset="1" stop-color="#C2C2C2" stop-opacity="0"/>
</linearGradient>
<linearGradient id="paint36_linear" x2="1" gradientUnits="userSpaceOnUse" gradientTransform="translate(115.603 127.745) scale(90.7755 255.49) rotate(-180)">
<stop stop-color="#010101"/>
<stop offset="1" stop-color="#C2C2C2" stop-opacity="0"/>
</linearGradient>
<linearGradient id="paint37_linear" x2="1" gradientUnits="userSpaceOnUse" gradientTransform="translate(75.4764 88.4387) scale(59.2667 176.877) rotate(-180)">
<stop stop-color="#010101"/>
<stop offset="1" stop-color="#C2C2C2" stop-opacity="0"/>
</linearGradient>
<linearGradient id="paint38_linear" x2="1" gradientUnits="userSpaceOnUse" gradientTransform="matrix(-29.5897 -0.516679 4.42062 -265.676 35.7855 134.216)">
<stop stop-color="#7A7A7A"/>
<stop offset="1" stop-color="#7A7A7A" stop-opacity="0"/>
</linearGradient>
<linearGradient id="paint39_linear" x2="1" gradientUnits="userSpaceOnUse" gradientTransform="translate(33.9609 115.419) scale(24.2097 230.838) rotate(-180)">
<stop stop-color="#9B9A9A"/>
<stop offset="1" stop-color="#9B9A9A" stop-opacity="0"/>
</linearGradient>
<linearGradient id="paint40_linear" x2="1" gradientUnits="userSpaceOnUse" gradientTransform="translate(25.0503 88.4387) scale(19.6704 176.877) rotate(-180)">
<stop stop-color="#C2C2C2"/>
<stop offset="1" stop-color="#C2C2C2" stop-opacity="0"/>
</linearGradient>
<linearGradient id="paint41_linear" x2="1" gradientUnits="userSpaceOnUse" gradientTransform="translate(36.2021 92.8061) scale(28.4272 185.612) rotate(-180)">
<stop stop-color="#010101"/>
<stop offset="1" stop-color="#C2C2C2" stop-opacity="0"/>
</linearGradient>
<linearGradient id="paint42_linear" x2="1" gradientUnits="userSpaceOnUse" gradientTransform="translate(29.3991 70.9693) scale(23.0852 141.939) rotate(-180)">
<stop stop-color="#010101"/>
<stop offset="1" stop-color="#C2C2C2" stop-opacity="0"/>
</linearGradient>
<linearGradient id="paint43_linear" x2="1" gradientUnits="userSpaceOnUse" gradientTransform="translate(19.1944 49.1326) scale(15.0721 98.2652) rotate(-180)">
<stop stop-color="#010101"/>
<stop offset="1" stop-color="#C2C2C2" stop-opacity="0"/>
</linearGradient>
<linearGradient id="paint44_linear" x2="1" gradientUnits="userSpaceOnUse" gradientTransform="translate(33.7478 92.8061) scale(26.4999 185.612) rotate(-180)">
<stop stop-color="#010101"/>
<stop offset="1" stop-color="#C2C2C2" stop-opacity="0"/>
</linearGradient>
<linearGradient id="paint45_linear" x2="1" gradientUnits="userSpaceOnUse" gradientTransform="translate(27.4059 70.9693) scale(21.5201 141.939) rotate(-180)">
<stop stop-color="#010101"/>
<stop offset="1" stop-color="#C2C2C2" stop-opacity="0"/>
</linearGradient>
<linearGradient id="paint46_linear" x2="1" gradientUnits="userSpaceOnUse" gradientTransform="translate(17.8931 49.1326) scale(14.0503 98.2652) rotate(-180)">
<stop stop-color="#010101"/>
<stop offset="1" stop-color="#C2C2C2" stop-opacity="0"/>
</linearGradient>
<linearGradient id="paint47_linear" x2="1" gradientUnits="userSpaceOnUse" gradientTransform="translate(36.2021 92.8061) scale(28.4272 185.612) rotate(-180)">
<stop stop-color="#010101"/>
<stop offset="1" stop-color="#C2C2C2" stop-opacity="0"/>
</linearGradient>
<linearGradient id="paint48_linear" x2="1" gradientUnits="userSpaceOnUse" gradientTransform="translate(29.3991 70.9693) scale(23.0852 141.939) rotate(-180)">
<stop stop-color="#010101"/>
<stop offset="1" stop-color="#C2C2C2" stop-opacity="0"/>
</linearGradient>
<linearGradient id="paint49_linear" x2="1" gradientUnits="userSpaceOnUse" gradientTransform="translate(19.1944 49.1326) scale(15.0721 98.2652) rotate(-180)">
<stop stop-color="#010101"/>
<stop offset="1" stop-color="#C2C2C2" stop-opacity="0"/>
</linearGradient>
</defs>
</svg>
